<svg width="21" height="21" viewBox="0 0 21 21" fill="none" xmlns="http://www.w3.org/2000/svg">
<path d="M0.00195312 10.6241C0.00311667 15.5738 3.58036 19.7882 8.43895 20.564V13.5319H5.90195V10.6241H8.44195V8.4106C8.32841 7.36172 8.68447 6.31638 9.41359 5.55808C10.1427 4.79978 11.1693 4.40712 12.215 4.48659C12.9655 4.49879 13.7141 4.56604 14.455 4.68782V7.16196H13.191C12.7558 7.10462 12.3183 7.24922 12.0017 7.55503C11.6851 7.86085 11.5237 8.29478 11.563 8.73458V10.6241H14.334L13.891 13.5329H11.563V20.564C16.8174 19.7284 20.502 14.9001 19.9475 9.57681C19.3929 4.25354 14.7932 0.298898 9.48078 0.577855C4.16831 0.856811 0.0027976 5.2717 0.00195312 10.6241Z" fill="#14141F"/>
</svg>
