<svg width="18" height="19" viewBox="0 0 18 19" fill="none" xmlns="http://www.w3.org/2000/svg">
<path d="M9.20933 7.91863V11.3971H14.1483C13.6887 13.6075 11.7644 14.8775 9.20933 14.8775C6.2333 14.8374 3.84224 12.4667 3.84224 9.55605C3.84224 6.64537 6.2333 4.27464 9.20933 4.23459C10.4464 4.23314 11.6453 4.65296 12.6003 5.42195L15.28 2.80129C12.2061 0.158516 7.71692 -0.181397 4.26368 1.96715C0.810443 4.1157 -0.776892 8.23635 0.368424 12.0791C1.51374 15.9218 5.11645 18.563 9.20933 18.5605C13.8134 18.5605 18 15.2857 18 9.55554C17.9929 9.00383 17.9238 8.45456 17.7939 7.91763L9.20933 7.91863Z" fill="#14141F"/>
</svg>
