<svg width="127" height="126" viewBox="0 0 127 126" fill="none" xmlns="http://www.w3.org/2000/svg">
<path d="M63.5 55.125C60.1905 55.1261 56.992 56.3181 54.4889 58.4832C51.9859 60.6483 50.3456 63.6418 49.8678 66.9166C49.39 70.1914 50.1066 73.5287 51.8866 76.3187C53.6667 79.1087 56.3913 81.165 59.5625 82.1116V90.5625C59.5625 91.6068 59.9773 92.6083 60.7158 93.3467C61.4542 94.0852 62.4557 94.5 63.5 94.5C64.5443 94.5 65.5458 94.0852 66.2842 93.3467C67.0227 92.6083 67.4375 91.6068 67.4375 90.5625V82.1116C70.6087 81.165 73.3333 79.1087 75.1134 76.3187C76.8934 73.5287 77.61 70.1914 77.1322 66.9166C76.6544 63.6418 75.0141 60.6483 72.5111 58.4832C70.008 56.3181 66.8095 55.1261 63.5 55.125ZM63.5 74.8125C62.3319 74.8125 61.1899 74.4661 60.2187 73.8171C59.2474 73.1681 58.4904 72.2457 58.0433 71.1665C57.5963 70.0872 57.4793 68.8997 57.7072 67.754C57.9351 66.6083 58.4976 65.5559 59.3237 64.7299C60.1497 63.9039 61.202 63.3414 62.3477 63.1135C63.4934 62.8856 64.681 63.0026 65.7602 63.4496C66.8394 63.8966 67.7619 64.6536 68.4109 65.6249C69.0599 66.5962 69.4062 67.7381 69.4062 68.9062C69.4062 70.4727 68.784 71.975 67.6763 73.0826C66.5687 74.1902 65.0664 74.8125 63.5 74.8125ZM102.875 39.375H87.125V27.5625C87.125 21.2968 84.6359 15.2876 80.2054 10.8571C75.7749 6.42656 69.7657 3.9375 63.5 3.9375C57.2343 3.9375 51.2252 6.42656 46.7946 10.8571C42.3641 15.2876 39.875 21.2968 39.875 27.5625V39.375H24.125C22.0364 39.375 20.0334 40.2047 18.5565 41.6815C17.0797 43.1584 16.25 45.1614 16.25 47.25V102.375C16.25 104.464 17.0797 106.467 18.5565 107.943C20.0334 109.42 22.0364 110.25 24.125 110.25H102.875C104.964 110.25 106.967 109.42 108.443 107.943C109.92 106.467 110.75 104.464 110.75 102.375V47.25C110.75 45.1614 109.92 43.1584 108.443 41.6815C106.967 40.2047 104.964 39.375 102.875 39.375ZM47.75 27.5625C47.75 23.3853 49.4094 19.3793 52.3631 16.4256C55.3168 13.4719 59.3228 11.8125 63.5 11.8125C67.6772 11.8125 71.6832 13.4719 74.6369 16.4256C77.5906 19.3793 79.25 23.3853 79.25 27.5625V39.375H47.75V27.5625ZM102.875 102.375H24.125V47.25H102.875V102.375Z" fill="white"/>
</svg>
