<svg width="36" height="26" viewBox="0 0 36 26" fill="none" xmlns="http://www.w3.org/2000/svg">
<path d="M11.4316 20.6482C12.6104 20.6482 13.694 20.4013 14.4292 19.9985C14.7652 19.8134 15.2448 19.4947 15.6572 19.1548C16.068 18.8162 16.6504 18.2887 17.1428 17.7354L22.36 11.9235C23.676 10.4589 21.4491 6.98902 21.9291 6.81107L27.6228 12.5073C27.0644 13.1383 20.404 20.6342 20.404 20.6342C19.95 21.1524 19.4716 21.6525 19.1464 21.9674C18.834 22.2717 18.2996 22.7252 18.0236 22.9387C16.4572 24.1514 14.3648 25.1349 11.5472 25.1349C5.1628 25.1349 0 19.6439 0 13.3209C0 5.47719 5.7996 0.925734 11.0816 0.925734C12.7008 0.875012 14 1.16286 15.0272 1.53144C15.9764 1.87255 16.6932 2.28509 17.2132 2.56575C16.5984 2.98209 16.0036 3.54976 15.0232 4.65634L13.952 5.87156C13.7056 5.77138 12.6128 5.36856 11.21 5.41379C7.8208 5.51946 4.114 8.42245 4.2476 13.1848C4.372 17.6378 7.8456 20.6482 11.4316 20.6482Z" fill="url(#paint0_linear_1265_1263)"/>
<path d="M21.2964 6.00169C20.9592 6.18809 20.4808 6.50595 20.066 6.84579C19.6564 7.18436 19.0744 7.71186 18.5804 8.26389L13.3644 14.0771C12.7427 16.3077 14.2254 18.9605 13.7458 19.1389L8.10156 13.4946C8.66156 12.8618 15.3208 5.36724 15.3208 5.36724C15.776 4.84903 16.2532 4.34899 16.5784 4.03283C16.8908 3.72849 17.4252 3.27665 17.7036 3.0615C19.2672 1.84882 21.3624 0.865234 24.18 0.865234C30.564 0.865234 35.7244 6.35674 35.7244 12.678C35.7244 20.5243 29.926 25.0732 24.6428 25.0732C23.0248 25.1252 21.7244 24.8373 20.6988 24.4658C19.7472 24.1259 19.0276 23.7109 18.5088 23.4315C19.1584 22.9682 19.7144 22.4601 20.7024 21.3447L21.772 20.1295C22.0184 20.228 23.1116 20.6312 24.5156 20.5872C27.9036 20.4803 31.6116 17.5743 31.478 12.8132C31.3524 8.36238 27.8764 5.35075 24.2924 5.35075C23.1116 5.35075 22.0328 5.59887 21.2964 6.00169Z" fill="url(#paint1_linear_1265_1263)"/>
<defs>
<linearGradient id="paint0_linear_1265_1263" x1="21.8412" y1="3.59483" x2="-25.3651" y2="70.4201" gradientUnits="userSpaceOnUse">
<stop stop-color="#F3C879"/>
<stop offset="1" stop-color="#91754D"/>
</linearGradient>
<linearGradient id="paint1_linear_1265_1263" x1="29.9428" y1="3.54003" x2="-17.261" y2="70.3644" gradientUnits="userSpaceOnUse">
<stop stop-color="#F3C879"/>
<stop offset="1" stop-color="#91754D"/>
</linearGradient>
</defs>
</svg>
