<svg width="453" height="484" viewBox="0 0 453 484" fill="none" xmlns="http://www.w3.org/2000/svg">
<g style="mix-blend-mode:darken">
<path d="M437.55 424.98L226.058 428.529L14.5655 424.98C14.5655 424.98 -14.1961 461.656 9.3505 478.602C14.0559 481.922 19.6852 483.679 25.4432 483.626H426.748C432.504 483.678 438.13 481.921 442.834 478.602C466.38 461.656 437.55 424.98 437.55 424.98Z" fill="#CBCBCB"/>
</g>
<path d="M401.617 363.213H226.092H50.5673L20.3246 418.419H226.092H431.866L401.617 363.213Z" fill="url(#paint0_linear_1286_8505)" stroke="black" stroke-width="2.75164" stroke-miterlimit="10"/>
<g style="mix-blend-mode:overlay" opacity="0.47">
<path d="M50.5674 385.451H226.092H401.617L430.909 418.419H431.866L401.617 363.213H226.092H50.5674L20.5796 417.951L50.5674 385.451Z" fill="white"/>
</g>
<path d="M431.866 418.42H20.3247C7.07024 451.119 38.1465 465.495 38.1465 465.495H414.038C414.038 465.495 445.128 451.119 431.866 418.42Z" fill="url(#paint1_linear_1286_8505)" stroke="black" stroke-width="2.75164" stroke-miterlimit="10"/>
<g style="mix-blend-mode:multiply">
<path d="M431.866 418.42C445.114 451.119 408.554 459.223 408.554 459.223H32.6698C29.0947 457.405 25.7981 455.085 22.8805 452.332C26.8492 457.867 32.0834 462.373 38.1465 465.474H414.038C414.038 465.474 445.128 451.119 431.866 418.42Z" fill="url(#paint2_linear_1286_8505)"/>
</g>
<g style="mix-blend-mode:overlay" opacity="0.3">
<path d="M430.227 418.833H20.3316C8.90275 447.019 30.4102 461.587 36.5621 465.101C30.9131 459.216 25.6086 450.175 27.2068 437.639C27.5976 434.564 29.0965 431.736 31.4225 429.687C33.7486 427.638 36.7419 426.509 39.8412 426.51H410.683C413.779 426.506 416.771 427.631 419.098 429.675C421.424 431.718 422.927 434.54 423.324 437.612C424.922 450.147 419.618 459.189 413.962 465.074C420.148 461.587 441.683 447.019 430.227 418.833Z" fill="white"/>
</g>
<g style="mix-blend-mode:multiply" opacity="0.44">
<path d="M407.238 376.665H44.9873C44.9873 376.665 39.3934 378.167 39.3934 393.893C39.3934 409.619 44.3191 411.122 44.3191 411.122H407.865C407.865 411.122 412.791 409.612 412.791 393.893C412.791 378.174 407.238 376.665 407.238 376.665Z" fill="url(#paint3_linear_1286_8505)"/>
</g>
<path d="M32.0566 420.087H21.6405C9.50895 450.498 38.7803 463.874 38.7803 463.874C38.7803 463.874 19.932 450.498 32.0566 420.087Z" fill="white"/>
<path d="M23.3007 416.539L37.7676 390.241C37.7676 390.241 28.0266 414.237 32.4838 416.539H23.3007Z" fill="white"/>
<path d="M407.238 370.766H44.9873C44.9873 370.766 39.3934 372.268 39.3934 387.994C39.3934 403.72 44.3191 405.222 44.3191 405.222H407.865C407.865 405.222 412.791 403.72 412.791 387.994C412.791 372.268 407.238 370.766 407.238 370.766Z" fill="url(#paint4_linear_1286_8505)" stroke="black" stroke-width="2.75164" stroke-miterlimit="10"/>
<g style="mix-blend-mode:multiply" opacity="0.51">
<path d="M406.756 370.766H44.5464C44.5464 370.766 38.9525 372.268 38.9525 387.994C38.9525 403.72 43.8781 405.222 43.8781 405.222H407.424C407.424 405.222 412.35 403.72 412.35 387.994C412.35 372.268 406.756 370.766 406.756 370.766Z" fill="url(#paint5_linear_1286_8505)"/>
<path d="M406.756 370.766H44.5464C44.5464 370.766 38.9525 372.268 38.9525 387.994C38.9525 403.72 43.8781 405.222 43.8781 405.222H407.424C407.424 405.222 412.35 403.72 412.35 387.994C412.35 372.268 406.756 370.766 406.756 370.766Z" stroke="black" stroke-width="2.75164" stroke-miterlimit="10"/>
</g>
<g style="mix-blend-mode:multiply">
<path d="M407.424 399.337H43.8782C43.8782 399.337 39.7448 398.062 39.0559 385.692C38.9939 386.74 38.9594 387.849 38.9594 389.055C38.9594 404.768 43.885 406.284 43.885 406.284H407.424C407.424 406.284 412.35 404.781 412.35 389.055C412.35 387.849 412.35 386.74 412.254 385.692C411.571 398.062 407.424 399.337 407.424 399.337Z" fill="url(#paint6_linear_1286_8505)"/>
</g>
<path d="M386.571 282.247H65.6198C44.3053 282.247 39.2212 360.808 38.7872 384.811C38.7183 388.601 41.5428 391.702 44.9873 391.702H407.238C410.683 391.702 413.507 388.587 413.438 384.811C412.97 360.781 407.879 282.247 386.571 282.247Z" fill="#FDD949" stroke="black" stroke-width="2.75164" stroke-miterlimit="10"/>
<g style="mix-blend-mode:overlay" opacity="0.65">
<path d="M407.238 385.348H44.9873C43.4992 385.298 42.0759 384.727 40.9655 383.735C39.8551 382.742 39.1281 381.392 38.9112 379.918C38.8492 381.627 38.8079 383.191 38.7872 384.57C38.7183 388.367 41.5428 391.461 44.9873 391.461H407.238C410.683 391.461 413.507 388.353 413.438 384.57C413.438 383.191 413.37 381.627 413.314 379.918C413.095 381.39 412.367 382.74 411.257 383.732C410.147 384.723 408.726 385.295 407.238 385.348Z" fill="white"/>
</g>
<g style="mix-blend-mode:multiply" opacity="0.44">
<path d="M65.6198 293.714C87.7404 293.714 194.906 298.014 220.567 299.061C224.253 299.206 227.931 299.206 231.624 299.061C257.279 298.014 364.451 293.714 386.564 293.714C406.122 293.714 412.012 359.808 413.19 389.283C413.339 388.669 413.411 388.039 413.404 387.408C412.97 363.378 407.893 284.852 386.537 284.852H65.6198C44.3052 284.852 39.2212 363.413 38.7872 387.408C38.7749 388.039 38.8443 388.669 38.9938 389.283C40.1718 359.808 46.0688 293.714 65.6198 293.714Z" fill="url(#paint7_linear_1286_8505)"/>
</g>
<g style="mix-blend-mode:multiply" opacity="0.44">
<path d="M323.564 382.178C342.839 382.178 358.464 365.573 358.464 345.089C358.464 324.605 342.839 308 323.564 308C304.29 308 288.665 324.605 288.665 345.089C288.665 365.573 304.29 382.178 323.564 382.178Z" fill="url(#paint8_linear_1286_8505)"/>
</g>
<g style="mix-blend-mode:multiply">
<path d="M323.489 369.354C338.106 369.354 349.956 356.759 349.956 341.223C349.956 325.687 338.106 313.093 323.489 313.093C308.871 313.093 297.021 325.687 297.021 341.223C297.021 356.759 308.871 369.354 323.489 369.354Z" fill="url(#paint9_linear_1286_8505)"/>
</g>
<g style="mix-blend-mode:multiply">
<path d="M323.489 317.283C337.446 317.283 348.868 328.764 349.88 343.319C349.929 342.63 349.963 341.941 349.963 341.251C349.963 325.712 338.107 313.114 323.489 313.114C308.87 313.114 297.014 325.684 297.014 341.224C297.014 341.913 297.049 342.602 297.097 343.291C298.11 328.764 309.538 317.283 323.489 317.283Z" fill="url(#paint10_linear_1286_8505)"/>
</g>
<g style="mix-blend-mode:multiply" opacity="0.44">
<path d="M323.489 367.748C334.591 367.748 343.591 358.183 343.591 346.385C343.591 334.586 334.591 325.021 323.489 325.021C312.387 325.021 303.387 334.586 303.387 346.385C303.387 358.183 312.387 367.748 323.489 367.748Z" fill="url(#paint11_linear_1286_8505)"/>
</g>
<path d="M323.489 363.213C334.591 363.213 343.591 353.649 343.591 341.85C343.591 330.052 334.591 320.487 323.489 320.487C312.387 320.487 303.387 330.052 303.387 341.85C303.387 353.649 312.387 363.213 323.489 363.213Z" fill="#F1F1F1" stroke="black" stroke-width="2.20131" stroke-miterlimit="10"/>
<g style="mix-blend-mode:overlay" opacity="0.65">
<path d="M323.489 325.125C333.733 325.125 342.186 333.278 343.432 343.808C343.538 342.913 343.591 342.014 343.591 341.113C343.591 329.315 334.594 319.75 323.489 319.75C312.384 319.75 303.387 329.315 303.387 341.113C303.389 342.014 303.444 342.913 303.552 343.808C304.799 333.278 313.245 325.125 323.489 325.125Z" fill="white"/>
</g>
<g style="mix-blend-mode:multiply" opacity="0.44">
<path d="M323.489 357.873C313.245 357.873 304.799 349.72 303.552 339.19C303.444 340.085 303.389 340.984 303.387 341.885C303.387 353.683 312.391 363.248 323.489 363.248C334.587 363.248 343.591 353.683 343.591 341.885C343.591 340.984 343.538 340.085 343.432 339.19C342.186 349.72 333.733 357.873 323.489 357.873Z" fill="#B1B1B1"/>
</g>
<path d="M323.489 377.224C341.873 377.224 356.776 361.387 356.776 341.851C356.776 322.315 341.873 306.478 323.489 306.478C305.104 306.478 290.201 322.315 290.201 341.851C290.201 361.387 305.104 377.224 323.489 377.224Z" stroke="black" stroke-width="2.75164" stroke-miterlimit="10"/>
<g style="mix-blend-mode:overlay" opacity="0.65">
<path d="M324.467 310.895C342.103 310.895 356.521 325.47 357.672 343.897C357.72 343.112 357.755 342.319 357.755 341.52C357.755 321.983 342.854 306.14 324.467 306.14C306.08 306.14 291.186 321.99 291.186 341.52C291.186 342.319 291.214 343.112 291.269 343.897C292.419 325.47 306.838 310.895 324.467 310.895Z" fill="white"/>
</g>
<g style="mix-blend-mode:multiply" opacity="0.44">
<path d="M324.467 373.53C306.838 373.53 292.419 358.962 291.269 340.534C291.214 341.32 291.186 342.112 291.186 342.912C291.186 362.449 306.087 378.285 324.467 378.285C342.847 378.285 357.755 362.435 357.755 342.912C357.755 342.112 357.755 341.32 357.672 340.534C356.521 358.975 342.103 373.53 324.467 373.53Z" fill="url(#paint12_linear_1286_8505)"/>
</g>
<g style="mix-blend-mode:multiply" opacity="0.44">
<path d="M154.798 314.43C103.392 314.43 97.2265 356.467 96.7374 372.399C96.634 375.687 98.8936 378.409 101.711 378.409H207.884C210.702 378.409 212.962 375.652 212.858 372.399C212.369 356.474 206.204 314.43 154.798 314.43Z" fill="url(#paint13_linear_1286_8505)"/>
</g>
<path d="M154.274 310.149C103.296 310.149 97.2265 351.807 96.7374 367.589C96.634 370.848 98.8799 373.55 101.67 373.55H206.879C209.634 373.55 211.908 370.848 211.811 367.589C211.322 351.807 205.212 310.149 154.274 310.149Z" fill="#F1F1F1" stroke="black" stroke-width="2.20131" stroke-miterlimit="10"/>
<g style="mix-blend-mode:multiply" opacity="0.44">
<path d="M154.274 328.921C193.473 328.921 206.128 353.592 210.075 372.158C210.655 371.552 211.106 370.834 211.401 370.049C211.696 369.264 211.828 368.427 211.791 367.589C211.301 351.807 205.191 310.149 154.254 310.149C103.316 310.149 97.2334 351.807 96.7374 367.589C96.6996 368.427 96.8321 369.264 97.1269 370.049C97.4218 370.834 97.8728 371.552 98.4528 372.158C102.421 353.592 115.069 328.921 154.274 328.921Z" fill="#B1B1B1"/>
</g>
<g style="mix-blend-mode:overlay" opacity="0.65">
<path d="M154.274 310.15C193.473 310.15 215.18 341.161 209.82 370.924C210.916 369.829 212.92 368.168 212.865 366.335C212.376 350.554 205.211 305.98 154.274 305.98C103.337 305.98 97.2333 347.638 96.7373 363.42C96.7005 364.257 96.8334 365.092 97.1283 365.876C97.4231 366.66 97.8736 367.377 98.4527 367.982C93.5822 341.154 115.069 310.15 154.274 310.15Z" fill="white"/>
</g>
<path d="M178.84 341.85C194.175 341.85 208.05 372.082 208.05 372.082H98.377C98.377 372.082 112.251 341.85 127.586 341.85H178.84Z" fill="#F1F1F1" stroke="black" stroke-width="2.20131" stroke-linecap="round" stroke-linejoin="round"/>
<g style="mix-blend-mode:overlay">
<path d="M154.274 366.334H102.407C100.519 369.725 99.4379 372.081 99.4379 372.081H209.104C209.104 372.081 208.029 369.725 206.135 366.334H154.274Z" fill="white"/>
</g>
<g style="mix-blend-mode:multiply" opacity="0.44">
<path d="M124.631 351.394H181.81C191.668 351.394 200.982 362.6 207.106 372.068H208.064C208.064 372.068 194.189 341.836 178.854 341.836H127.6C112.265 341.836 98.3907 372.068 98.3907 372.068H99.3483C105.459 362.593 114.773 351.394 124.631 351.394Z" fill="#B1B1B1"/>
</g>
<path d="M118.768 320.888C118.768 320.888 122.798 339.439 120.463 343.533" stroke="black" stroke-width="2.75164" stroke-linecap="round" stroke-linejoin="round"/>
<path d="M184.4 319.047C184.4 319.047 180.37 337.605 182.705 341.699" stroke="black" stroke-width="2.75164" stroke-linecap="round" stroke-linejoin="round"/>
<path d="M51.0083 359.409C51.0083 359.409 57.5942 304.203 79.0052 303.672C100.416 303.142 134.048 300.309 134.048 300.309C134.048 300.309 76.3736 295.182 63.6083 298.332C50.8429 301.481 47.7842 358.493 51.0083 359.409Z" fill="white"/>
<path d="M341.214 5.99512H111.735C93.2585 5.99512 94.216 26.9792 94.216 26.9792H358.754C358.754 26.9792 359.704 5.99512 341.214 5.99512Z" fill="#FDD949" stroke="black" stroke-width="2.75164" stroke-miterlimit="10"/>
<g style="mix-blend-mode:overlay" opacity="0.71">
<path d="M95.7317 26.9792C96.4619 20.9148 99.6377 9.86115 113.044 9.86115H342.523C355.929 9.86115 359.098 20.8873 359.835 26.9792H360.042C360.042 26.9792 360.992 5.99512 342.523 5.99512H113.078C94.6087 5.99512 95.5594 26.9792 95.5594 26.9792H95.7317Z" fill="white"/>
</g>
<g style="mix-blend-mode:multiply" opacity="0.44">
<path d="M226.891 21.3008H95.0978C94.7563 23.1458 94.5994 25.0203 94.6294 26.8965H359.167C359.197 25.0203 359.04 23.1458 358.698 21.3008H226.891Z" fill="url(#paint14_linear_1286_8505)"/>
</g>
<path d="M358.733 26.2901H94.1954C94.1954 26.2901 63.994 22.8858 63.994 66.6939H388.955C388.955 22.8858 358.733 26.2901 358.733 26.2901Z" fill="url(#paint15_linear_1286_8505)" stroke="black" stroke-width="2.75164" stroke-miterlimit="10"/>
<g style="mix-blend-mode:multiply" opacity="0.44">
<path d="M385.607 47.5635C376.927 58.9135 360.917 57.6317 360.917 57.6317H96.8132C96.8132 57.6317 80.8238 58.9135 72.123 47.5635C68.7336 51.8361 66.3845 57.9487 66.3845 66.6938H391.345C391.345 57.9487 388.996 51.8361 385.607 47.5635Z" fill="url(#paint16_linear_1286_8505)"/>
</g>
<g style="mix-blend-mode:overlay" opacity="0.47">
<path d="M95.5249 33.6019H360.062C360.062 33.6019 386.799 30.5904 389.974 66.6802H390.284C390.284 22.8721 360.062 26.2764 360.062 26.2764H95.5249C95.5249 26.2764 65.3029 22.8859 65.3029 66.694H65.6129C68.7887 30.5904 95.5249 33.6019 95.5249 33.6019Z" fill="white"/>
</g>
<g style="mix-blend-mode:multiply" opacity="0.92">
<path d="M290.814 37.6748H161.687C155.831 37.6748 151.071 42.1128 151.071 47.5639C151.071 53.0149 155.831 57.4598 161.687 57.4598H290.814C296.67 57.4598 301.437 53.0218 301.437 47.5639C301.437 42.1059 296.684 37.6748 290.814 37.6748Z" fill="url(#paint17_linear_1286_8505)"/>
</g>
<path d="M290.814 33.9814H161.687C155.831 33.9814 151.071 38.4195 151.071 43.8774C151.071 49.3353 155.831 53.7733 161.687 53.7733H290.814C296.67 53.7733 301.437 49.3353 301.437 43.8774C301.437 38.4195 296.684 33.9814 290.814 33.9814Z" fill="#E5E5E5" stroke="black" stroke-width="2.20131" stroke-miterlimit="10"/>
<g style="mix-blend-mode:multiply" opacity="0.44">
<path d="M291.455 47.5643H162.321C160.148 47.6036 158.015 46.9733 156.212 45.7591C154.409 44.5448 153.023 42.8053 152.242 40.7764C151.883 41.7708 151.699 42.8201 151.698 43.8775C151.698 49.3354 156.465 53.7734 162.321 53.7734H291.455C297.311 53.7734 302.078 49.3354 302.078 43.8775C302.077 42.8201 301.893 41.7708 301.533 40.7764C300.752 42.8053 299.366 44.5448 297.563 45.7591C295.761 46.9733 293.628 47.6036 291.455 47.5643Z" fill="#B1B1B1"/>
</g>
<g style="mix-blend-mode:overlay" opacity="0.47">
<path d="M161.687 36.5657H290.814C296.201 36.5657 300.652 40.3215 301.334 45.1661C301.4 44.7396 301.434 44.3089 301.437 43.8774C301.437 38.4263 296.67 33.9814 290.814 33.9814H161.687C155.831 33.9814 151.071 38.4263 151.071 43.8774C151.074 44.3089 151.108 44.7396 151.174 45.1661C151.856 40.3215 156.307 36.5657 161.687 36.5657Z" fill="white"/>
</g>
<g style="mix-blend-mode:multiply" opacity="0.44">
<path d="M364.657 55.1579C367.929 55.1579 370.582 52.3379 370.582 48.8592C370.582 45.3806 367.929 42.5605 364.657 42.5605C361.385 42.5605 358.733 45.3806 358.733 48.8592C358.733 52.3379 361.385 55.1579 364.657 55.1579Z" fill="url(#paint18_linear_1286_8505)"/>
</g>
<path d="M364.657 51.9811C367.929 51.9811 370.582 49.1611 370.582 45.6825C370.582 42.2038 367.929 39.3838 364.657 39.3838C361.385 39.3838 358.733 42.2038 358.733 45.6825C358.733 49.1611 361.385 51.9811 364.657 51.9811Z" fill="white" stroke="black" stroke-width="1.65098" stroke-miterlimit="10"/>
<g style="mix-blend-mode:multiply" opacity="0.44">
<path d="M87.8575 55.1579C91.1296 55.1579 93.7821 52.3379 93.7821 48.8592C93.7821 45.3806 91.1296 42.5605 87.8575 42.5605C84.5855 42.5605 81.933 45.3806 81.933 48.8592C81.933 52.3379 84.5855 55.1579 87.8575 55.1579Z" fill="url(#paint19_linear_1286_8505)"/>
</g>
<path d="M87.8575 51.9811C91.1296 51.9811 93.7821 49.1611 93.7821 45.6825C93.7821 42.2038 91.1296 39.3838 87.8575 39.3838C84.5855 39.3838 81.933 42.2038 81.933 45.6825C81.933 49.1611 84.5855 51.9811 87.8575 51.9811Z" fill="white" stroke="black" stroke-width="1.65098" stroke-miterlimit="10"/>
<path d="M68.1757 62.649C68.1757 62.649 78.4472 39.06 110.323 36.8204C142.198 34.5807 145.849 33.9811 145.849 33.9811C145.849 33.9811 94.1403 31.6105 84.7437 34.9597C75.3471 38.3089 69.5052 50.1895 68.1757 62.649Z" fill="white"/>
<path d="M398.152 66.7842H55.266C55.266 66.7842 23.5077 85.9834 23.5077 178.424C23.5077 270.864 47.4607 290.063 64.2285 290.063H389.189C405.957 290.063 429.903 270.857 429.903 178.424C429.903 85.9903 398.152 66.7842 398.152 66.7842Z" fill="#F1F1F1" stroke="black" stroke-width="2.20131" stroke-miterlimit="10"/>
<g style="mix-blend-mode:darken">
<path d="M390.119 239.067V94.0528C390.119 86.6722 392.585 78.8919 396.243 71.4424C388.245 79.9256 372.876 98.3185 372.876 114.313V223.417C372.876 223.417 371.602 249.569 405.034 283.509C389.251 256.86 390.119 239.067 390.119 239.067Z" fill="#CBCBCB"/>
</g>
<g style="mix-blend-mode:darken">
<path d="M62.8229 239.067V94.0528C62.8229 86.6722 60.3635 78.8919 56.7055 71.4424C64.7036 79.9256 80.066 98.3185 80.066 114.313V223.417C80.066 223.417 81.3474 249.569 47.9151 283.509C63.6978 256.86 62.8229 239.067 62.8229 239.067Z" fill="#CBCBCB"/>
</g>
<path d="M55.0314 66.6943C55.0314 66.6943 83.1109 92.6746 83.1109 114.334V223.417C83.1109 223.417 84.4267 250.258 49.6235 284.853" stroke="black" stroke-width="2.20131" stroke-miterlimit="10"/>
<path d="M397.497 66.6943C397.497 66.6943 369.418 92.6746 369.418 114.334V223.417C369.418 223.417 368.095 250.258 402.905 284.853" stroke="black" stroke-width="2.20131" stroke-miterlimit="10"/>
<path d="M83.111 114.32H369.411" stroke="black" stroke-width="2.20131" stroke-miterlimit="10"/>
<path d="M82.7803 228.117H369.411" stroke="black" stroke-width="2.20131" stroke-miterlimit="10"/>
<g style="mix-blend-mode:darken">
<path d="M361.144 114.32H91.3778C86.8121 114.32 83.111 118.023 83.111 122.59V219.847C83.111 224.414 86.8121 228.117 91.3778 228.117H361.144C365.71 228.117 369.411 224.414 369.411 219.847V122.59C369.411 118.023 365.71 114.32 361.144 114.32Z" fill="#CBCBCB"/>
</g>
<g style="mix-blend-mode:darken">
<path d="M76.8282 258.363C79.6758 254.448 83.4048 251.259 87.7133 249.054C92.0218 246.848 96.7889 245.689 101.629 245.669H346.491C352.777 245.68 358.932 247.473 364.241 250.839C369.551 254.205 373.799 259.007 376.493 264.689C381.315 274.723 388.142 280.732 403.181 287.43L403.05 287.217C378.422 262.746 371.884 242.154 370.162 232.196H82.6563C80.9341 242.154 74.3895 262.746 49.7682 287.217C63.9251 273.096 72.1093 264.772 76.8282 258.363Z" fill="#CBCBCB"/>
</g>
<g style="mix-blend-mode:darken">
<path d="M346.898 96.162C346.898 75.7775 396.726 67.8663 396.739 67.8594C396.739 67.8594 368.66 92.3442 368.66 112.729H82.3532C82.3532 92.3442 54.2736 67.8594 54.2736 67.8594C54.2736 67.8594 98.5699 74.7507 98.5699 95.1145C98.5699 95.1145 119.271 103.205 225.507 103.205C331.742 103.205 346.898 96.162 346.898 96.162Z" fill="#CBCBCB"/>
</g>
<g style="mix-blend-mode:darken">
<path d="M153.186 276.81C171.513 276.81 186.37 273.009 186.37 268.32C186.37 263.631 171.513 259.83 153.186 259.83C134.859 259.83 120.002 263.631 120.002 268.32C120.002 273.009 134.859 276.81 153.186 276.81Z" fill="#CBCBCB"/>
</g>
<path d="M153.186 276.81C171.513 276.81 186.37 273.586 186.37 269.609C186.37 265.631 171.513 262.407 153.186 262.407C134.859 262.407 120.002 265.631 120.002 269.609C120.002 273.586 134.859 276.81 153.186 276.81Z" fill="#666666"/>
<g style="mix-blend-mode:multiply" opacity="0.72">
<path d="M153.241 266.515C168.28 266.515 180.976 268.685 185.054 271.662C185.943 271.015 186.432 270.325 186.432 269.595C186.432 265.619 171.573 262.394 153.241 262.394C134.909 262.394 120.057 265.619 120.057 269.595C120.057 270.284 120.546 270.973 121.434 271.662C125.513 268.699 138.209 266.515 153.241 266.515Z" fill="#B1B1B1"/>
</g>
<g style="mix-blend-mode:hard-light">
<path d="M153.241 275.59C135.853 275.59 121.593 272.689 120.174 268.995C120.096 269.186 120.054 269.389 120.05 269.595C120.05 273.571 134.909 276.796 153.234 276.796C171.559 276.796 186.425 273.571 186.425 269.595C186.421 269.389 186.379 269.186 186.301 268.995C184.896 272.703 170.636 275.59 153.241 275.59Z" fill="white"/>
</g>
<g style="mix-blend-mode:multiply" opacity="0.44">
<path d="M399.64 383.522C402.912 383.522 405.564 380.702 405.564 377.223C405.564 373.745 402.912 370.925 399.64 370.925C396.368 370.925 393.715 373.745 393.715 377.223C393.715 380.702 396.368 383.522 399.64 383.522Z" fill="url(#paint20_linear_1286_8505)"/>
</g>
<path d="M399.64 380.345C402.912 380.345 405.564 377.525 405.564 374.047C405.564 370.568 402.912 367.748 399.64 367.748C396.368 367.748 393.715 370.568 393.715 374.047C393.715 377.525 396.368 380.345 399.64 380.345Z" fill="white" stroke="black" stroke-width="1.65098" stroke-miterlimit="10"/>
<g style="mix-blend-mode:darken">
<path d="M393.708 373.517C393.66 374.325 393.778 375.134 394.055 375.895C394.331 376.656 394.76 377.353 395.315 377.942C395.87 378.531 396.54 379 397.283 379.321C398.026 379.642 398.827 379.807 399.636 379.807C400.446 379.807 401.246 379.642 401.989 379.321C402.732 379 403.402 378.531 403.957 377.942C404.512 377.353 404.941 376.656 405.218 375.895C405.494 375.134 405.612 374.325 405.564 373.517C405.564 373.517 403.69 375.143 399.64 375.143C395.589 375.143 393.708 373.517 393.708 373.517Z" fill="#CCCCCC"/>
</g>
<g style="mix-blend-mode:multiply" opacity="0.44">
<path d="M55.5481 383.522C58.8201 383.522 61.4726 380.702 61.4726 377.223C61.4726 373.745 58.8201 370.925 55.5481 370.925C52.276 370.925 49.6235 373.745 49.6235 377.223C49.6235 380.702 52.276 383.522 55.5481 383.522Z" fill="url(#paint21_linear_1286_8505)"/>
</g>
<path d="M55.5481 380.345C58.8201 380.345 61.4726 377.525 61.4726 374.047C61.4726 370.568 58.8201 367.748 55.5481 367.748C52.276 367.748 49.6235 370.568 49.6235 374.047C49.6235 377.525 52.276 380.345 55.5481 380.345Z" fill="white" stroke="black" stroke-width="1.65098" stroke-miterlimit="10"/>
<g style="mix-blend-mode:darken">
<path d="M49.6236 373.517C49.5758 374.325 49.6938 375.134 49.9701 375.895C50.2464 376.656 50.6753 377.353 51.2305 377.942C51.7856 378.531 52.4553 379 53.1984 379.321C53.9414 379.642 54.7422 379.807 55.5515 379.807C56.3609 379.807 57.1616 379.642 57.9047 379.321C58.6478 379 59.3174 378.531 59.8726 377.942C60.4277 377.353 60.8566 376.656 61.133 375.895C61.4093 375.134 61.5272 374.325 61.4795 373.517C61.4795 373.517 59.6057 375.143 55.5481 375.143C51.4905 375.143 49.6236 373.517 49.6236 373.517Z" fill="#CCCCCC"/>
</g>
<g clip-path="url(#clip0_1286_8505)">
<path d="M356.88 334.856H288.906C285.006 334.856 281.845 338.019 281.845 341.92V342.802C281.845 346.703 285.006 349.866 288.906 349.866H356.88C360.78 349.866 363.941 346.703 363.941 342.802V341.92C363.941 338.019 360.78 334.856 356.88 334.856Z" fill="#F1F1F1" stroke="black" stroke-width="2.20131" stroke-miterlimit="10"/>
<g style="mix-blend-mode:multiply" opacity="0.44">
<path d="M356.88 345.145H288.906C287.315 345.139 285.772 344.597 284.527 343.605C283.282 342.613 282.407 341.231 282.045 339.681C281.913 340.22 281.846 340.773 281.845 341.328V342.21C281.85 344.081 282.596 345.875 283.919 347.198C285.242 348.522 287.035 349.268 288.906 349.273H356.88C358.751 349.268 360.544 348.522 361.867 347.198C363.19 345.875 363.936 344.081 363.941 342.21V341.328C363.943 340.773 363.878 340.22 363.748 339.681C363.383 341.231 362.507 342.613 361.261 343.604C360.015 344.595 358.472 345.138 356.88 345.145Z" fill="#B1B1B1"/>
</g>
<g style="mix-blend-mode:overlay" opacity="0.65">
<path d="M288.906 339.046H356.88C358.472 339.048 360.018 339.587 361.267 340.574C362.517 341.562 363.398 342.941 363.769 344.49C363.896 343.957 363.961 343.411 363.962 342.864V341.982C363.956 340.106 363.208 338.31 361.88 336.986C360.553 335.661 358.755 334.918 356.88 334.918H288.906C287.035 334.923 285.242 335.669 283.919 336.993C282.596 338.316 281.85 340.11 281.845 341.982V342.864C281.847 343.416 281.914 343.967 282.045 344.504C282.41 342.956 283.285 341.575 284.53 340.585C285.774 339.595 287.316 339.053 288.906 339.046Z" fill="white"/>
</g>
</g>
<path d="M342.523 6.14001C358.912 6.14001 360.007 22.6792 360.049 26.3729H360.193C360.407 26.3729 360.641 26.3729 360.882 26.3729H361.53C366.862 26.3729 384.89 28.3301 389.279 54.2966C390.719 58.3182 391.419 62.5675 391.345 66.8388H397.917C397.917 66.8388 429.669 86.0448 429.669 178.478C429.669 243.422 417.854 272.2 405.006 283.605V283.647C405.006 283.647 405.006 283.647 405.006 283.612C404.003 284.5 402.942 285.319 401.83 286.065C402.237 286.479 402.636 286.892 403.057 287.306L403.188 287.519C402.457 287.196 401.755 286.879 401.066 286.555C399.568 287.493 397.971 288.265 396.305 288.856C408.561 306.774 412.488 357.08 413.28 380.091C413.335 381.807 413.376 383.371 413.404 384.742C413.404 384.742 413.404 384.811 413.404 384.846V384.894L431.873 418.592C433.577 422.674 434.648 426.992 435.049 431.396C435.111 432.21 435.146 433.002 435.159 433.781V433.85C435.359 455.812 414.045 465.667 414.045 465.667H38.1465C38.1465 465.667 37.2027 465.233 35.7147 464.337C35.9971 464.647 36.2796 464.957 36.562 465.253C31.6295 462.456 16.8526 452.546 17.0386 434.243C17.1034 428.866 18.2197 423.554 20.3247 418.606L38.7872 384.908V384.859C38.7837 384.825 38.7837 384.79 38.7872 384.756C38.7872 383.378 38.8492 381.82 38.9112 380.104C39.7034 356.984 43.6577 306.367 56.0372 288.65C54.2808 287.969 52.6075 287.09 51.0496 286.031L49.7682 287.306C50.2022 286.872 50.6225 286.444 51.0427 286.01C49.9598 285.28 48.9264 284.479 47.9495 283.612V283.647V283.605C35.0947 272.221 23.2732 243.429 23.2732 178.485C23.2732 92.3435 50.8291 69.8089 54.5974 67.1282L54.2736 66.8388L54.873 66.9421L55.0314 66.8388H63.9871C63.9871 28.9365 86.6244 26.3729 92.7142 26.3729H93.3618C93.6098 26.3729 93.844 26.3729 94.0507 26.3729H94.2023C94.2505 22.6792 95.339 6.14001 111.735 6.14001H342.516M358.258 21.4732H358.561C358.361 20.8805 358.134 20.2948 357.872 19.7021C358.023 20.3086 358.154 20.9012 358.258 21.4732ZM359.153 26.4005H359.732C359.527 25.0007 359.216 23.6185 358.802 22.2657C359.016 23.6525 359.134 25.0525 359.153 26.4556M342.523 0.626953H111.742C97.3712 0.626953 90.8267 10.7434 89.1526 21.0804C83.0428 21.7935 77.2709 24.2639 72.5364 28.1922C64.2007 35.1387 59.5368 46.2819 58.655 61.3257H55.0314H54.6594H54.2736C53.2869 61.3279 52.3189 61.5951 51.4706 62.0994C50.6223 62.6037 49.925 63.3265 49.4513 64.1925C41.095 71.4077 17.762 98.6973 17.762 178.485C17.762 234.732 26.4834 271.297 43.6921 287.196C43.8713 287.41 44.0671 287.611 44.2777 287.795C44.3895 289.08 44.9477 290.284 45.8553 291.199C46.3643 291.714 46.9677 292.126 47.6326 292.412C36.2451 317.497 33.8547 367.996 33.4206 379.574C33.4206 379.677 33.4206 379.78 33.4206 379.877C33.3793 381.124 33.3449 382.31 33.3173 383.412L15.4886 415.919C15.3857 416.106 15.2937 416.299 15.213 416.497C12.8539 422.098 11.6023 428.103 11.5274 434.181C11.3276 455.592 28.5639 467.025 33.8478 470.015C34.5007 470.387 35.2227 470.622 35.9696 470.705C36.6573 471 37.398 471.153 38.1465 471.152H414.038C414.836 471.152 415.625 470.98 416.352 470.649C417.351 470.181 440.891 459.003 440.664 433.774C440.667 433.73 440.667 433.687 440.664 433.643C440.664 432.733 440.615 431.831 440.54 430.928C440.095 425.964 438.894 421.098 436.978 416.497C436.897 416.299 436.805 416.106 436.702 415.919L418.894 383.412C418.867 382.305 418.832 381.127 418.791 379.877C418.791 379.78 418.791 379.677 418.791 379.574C418.385 368.086 415.987 318.041 404.731 292.826C405.837 292.506 406.815 291.847 407.528 290.942C408.241 290.038 408.653 288.932 408.706 287.781C408.912 287.602 409.103 287.406 409.277 287.196C426.5 271.297 435.201 234.732 435.201 178.485C435.201 139.308 429.689 108.049 418.77 85.59C410.366 68.2653 401.741 62.6971 400.79 62.1251C399.93 61.6033 398.944 61.3268 397.938 61.3257H396.56C396.24 58.4408 395.593 55.6017 394.631 52.8632C392.434 40.4588 387.102 31.4174 378.787 25.987C374.669 23.3209 369.992 21.6417 365.119 21.0804C363.431 10.7365 356.887 0.626953 342.523 0.626953Z" fill="black"/>
<defs>
<linearGradient id="paint0_linear_1286_8505" x1="345.729" y1="369.311" x2="321.327" y2="595.051" gradientUnits="userSpaceOnUse">
<stop stop-color="#F9B12F"/>
<stop offset="1" stop-color="#996214"/>
</linearGradient>
<linearGradient id="paint1_linear_1286_8505" x1="347.643" y1="423.62" x2="330.12" y2="616.768" gradientUnits="userSpaceOnUse">
<stop stop-color="#F9B12F"/>
<stop offset="1" stop-color="#996214"/>
</linearGradient>
<linearGradient id="paint2_linear_1286_8505" x1="348.867" y1="423.618" x2="331.115" y2="616.637" gradientUnits="userSpaceOnUse">
<stop stop-color="#F9B12F"/>
<stop offset="1" stop-color="#996214"/>
</linearGradient>
<linearGradient id="paint3_linear_1286_8505" x1="334.637" y1="380.471" x2="324.096" y2="522.227" gradientUnits="userSpaceOnUse">
<stop stop-color="#F9B12F"/>
<stop offset="1" stop-color="#996214"/>
</linearGradient>
<linearGradient id="paint4_linear_1286_8505" x1="334.637" y1="374.572" x2="324.096" y2="516.328" gradientUnits="userSpaceOnUse">
<stop stop-color="#F9B12F"/>
<stop offset="1" stop-color="#996214"/>
</linearGradient>
<linearGradient id="paint5_linear_1286_8505" x1="334.196" y1="374.572" x2="323.655" y2="516.328" gradientUnits="userSpaceOnUse">
<stop stop-color="#F9B12F"/>
<stop offset="1" stop-color="#996214"/>
</linearGradient>
<linearGradient id="paint6_linear_1286_8505" x1="334.198" y1="387.967" x2="330.42" y2="472.981" gradientUnits="userSpaceOnUse">
<stop stop-color="#F9B12F"/>
<stop offset="1" stop-color="#996214"/>
</linearGradient>
<linearGradient id="paint7_linear_1286_8505" x1="334.995" y1="296.388" x2="242.611" y2="707.644" gradientUnits="userSpaceOnUse">
<stop stop-color="#F9B12F"/>
<stop offset="1" stop-color="#996214"/>
</linearGradient>
<linearGradient id="paint8_linear_1286_8505" x1="343.855" y1="316.194" x2="192.251" y2="493.223" gradientUnits="userSpaceOnUse">
<stop stop-color="#F9B12F"/>
<stop offset="1" stop-color="#996214"/>
</linearGradient>
<linearGradient id="paint9_linear_1286_8505" x1="338.877" y1="319.308" x2="223.89" y2="453.566" gradientUnits="userSpaceOnUse">
<stop stop-color="#F9B12F"/>
<stop offset="1" stop-color="#996214"/>
</linearGradient>
<linearGradient id="paint10_linear_1286_8505" x1="338.881" y1="316.451" x2="291.463" y2="419.604" gradientUnits="userSpaceOnUse">
<stop stop-color="#F9B12F"/>
<stop offset="1" stop-color="#996214"/>
</linearGradient>
<linearGradient id="paint11_linear_1286_8505" x1="335.176" y1="329.741" x2="247.853" y2="431.709" gradientUnits="userSpaceOnUse">
<stop stop-color="#F9B12F"/>
<stop offset="1" stop-color="#996214"/>
</linearGradient>
<linearGradient id="paint12_linear_1286_8505" x1="343.822" y1="344.704" x2="284.785" y2="473.892" gradientUnits="userSpaceOnUse">
<stop stop-color="#F9B12F"/>
<stop offset="1" stop-color="#996214"/>
</linearGradient>
<linearGradient id="paint13_linear_1286_8505" x1="188.556" y1="321.497" x2="90.4001" y2="542.588" gradientUnits="userSpaceOnUse">
<stop stop-color="#F9B12F"/>
<stop offset="1" stop-color="#996214"/>
</linearGradient>
<linearGradient id="paint14_linear_1286_8505" x1="303.8" y1="21.9189" x2="303.406" y2="45.0607" gradientUnits="userSpaceOnUse">
<stop stop-color="#F9B12F"/>
<stop offset="1" stop-color="#996214"/>
</linearGradient>
<linearGradient id="paint15_linear_1286_8505" x1="320.939" y1="30.6985" x2="304.309" y2="196.427" gradientUnits="userSpaceOnUse">
<stop stop-color="#F9B12F"/>
<stop offset="1" stop-color="#996214"/>
</linearGradient>
<linearGradient id="paint16_linear_1286_8505" x1="323.33" y1="49.6767" x2="319.584" y2="128.637" gradientUnits="userSpaceOnUse">
<stop stop-color="#F9B12F"/>
<stop offset="1" stop-color="#996214"/>
</linearGradient>
<linearGradient id="paint17_linear_1286_8505" x1="269.965" y1="39.8604" x2="261.383" y2="120.797" gradientUnits="userSpaceOnUse">
<stop stop-color="#F9B12F"/>
<stop offset="1" stop-color="#996214"/>
</linearGradient>
<linearGradient id="paint18_linear_1286_8505" x1="368.102" y1="43.9521" x2="342.354" y2="74.0061" gradientUnits="userSpaceOnUse">
<stop stop-color="#F9B12F"/>
<stop offset="1" stop-color="#996214"/>
</linearGradient>
<linearGradient id="paint19_linear_1286_8505" x1="91.302" y1="43.9521" x2="65.5542" y2="74.0062" gradientUnits="userSpaceOnUse">
<stop stop-color="#F9B12F"/>
<stop offset="1" stop-color="#996214"/>
</linearGradient>
<linearGradient id="paint20_linear_1286_8505" x1="403.084" y1="372.316" x2="377.336" y2="402.37" gradientUnits="userSpaceOnUse">
<stop stop-color="#F9B12F"/>
<stop offset="1" stop-color="#996214"/>
</linearGradient>
<linearGradient id="paint21_linear_1286_8505" x1="58.9926" y1="372.316" x2="33.2448" y2="402.37" gradientUnits="userSpaceOnUse">
<stop stop-color="#F9B12F"/>
<stop offset="1" stop-color="#996214"/>
</linearGradient>
<clipPath id="clip0_1286_8505">
<rect width="84.8518" height="17.7658" fill="white" transform="translate(280.467 333.478)"/>
</clipPath>
</defs>
</svg>
