<svg width="722" height="168" viewBox="0 0 722 168" fill="none" xmlns="http://www.w3.org/2000/svg">
<g filter="url(#filter0_f_862_1821)">
<path fill-rule="evenodd" clip-rule="evenodd" d="M86.8656 9.29166C105.303 9.257 122.243 15.6859 135.543 26.4418C136.75 27.4184 136.56 29.2868 135.21 30.0539C134.388 30.5209 133.364 30.4241 132.628 29.831C120.114 19.7493 104.195 13.727 86.874 13.7595C69.6219 13.7919 53.7835 19.8258 41.3305 29.8818C40.5935 30.4769 39.5674 30.5739 38.7444 30.1049C37.3972 29.3372 37.2075 27.4722 38.412 26.4958C51.6469 15.7672 68.5017 9.32617 86.8656 9.29166ZM13.5987 75.77C12.2269 74.9883 10.4988 75.8177 10.314 77.3857C9.95521 80.4294 9.77352 83.527 9.77942 86.6682C9.83997 118.88 29.6126 146.45 57.6612 157.982C59.1137 158.58 60.6733 157.486 60.6704 155.916C60.6686 154.985 60.0936 154.152 59.2329 153.796C32.8738 142.9 14.3042 116.96 14.2473 86.6598C14.2418 83.7454 14.4077 80.8706 14.7356 78.0451C14.8421 77.1272 14.4016 76.2276 13.5987 75.77ZM159.774 86.3862C159.769 83.537 159.6 80.7263 159.276 77.9631C159.168 77.0433 159.61 76.1416 160.415 75.6841C161.786 74.9053 163.511 75.7333 163.697 77.2988C164.051 80.2763 164.236 83.306 164.242 86.3778C164.303 118.911 144.24 146.784 115.789 158.215C114.342 158.796 112.799 157.71 112.796 156.151C112.794 155.21 113.378 154.369 114.251 154.016C140.988 143.215 159.832 116.989 159.774 86.3862Z" fill="#61FFFF" fill-opacity="0.5"/>
</g>
<g filter="url(#filter1_f_862_1821)">
<circle cx="87.0097" cy="85.6765" r="74.9975" transform="rotate(89.8923 87.0097 85.6765)" stroke="#61FFFF" stroke-width="0.744645"/>
</g>
<path d="M117.588 152.636L117.667 152.805L117.588 152.636ZM159.362 82.1067L159.548 82.0951L159.362 82.1067ZM55.3515 152.378L55.4319 152.21L55.3515 152.378ZM53.5555 156.473L53.4754 156.641L53.5555 156.473ZM9.66593 81.7732L9.48013 81.7614L9.66593 81.7732ZM44.1773 27.6934L44.0683 27.5425L44.1773 27.6934ZM129.237 27.6438L129.346 27.4928L129.237 27.6438ZM119.35 156.746L119.429 156.914L119.35 156.746ZM41.4422 24.1573L41.5515 24.308L41.4422 24.1573ZM14.1164 82.1936L14.3022 82.205L14.1164 82.1936ZM132.078 23.9538C119.296 14.7052 103.58 9.26595 86.5964 9.29788L86.5971 9.6702C103.499 9.63843 119.14 15.0514 131.859 24.2554L132.078 23.9538ZM86.6055 14.1381C102.477 14.1082 117.167 19.1748 129.129 27.7949L129.346 27.4928C117.323 18.8285 102.557 13.7358 86.6048 13.7657L86.6055 14.1381ZM44.2864 27.8443C56.1879 19.2462 70.8018 14.1678 86.6055 14.1381L86.6048 13.7657C70.7205 13.7956 56.031 18.9002 44.0683 27.5425L44.2864 27.8443ZM86.5964 9.29788C69.6853 9.32967 54.0503 14.7816 41.3329 24.0066L41.5515 24.308C54.2076 15.1274 69.7668 9.70184 86.5971 9.6702L86.5964 9.29788ZM9.48013 81.7614C9.3737 83.4472 9.32124 85.1476 9.32446 86.8609L9.69678 86.8602C9.69357 85.155 9.74578 83.4627 9.85171 81.7849L9.48013 81.7614ZM9.32446 86.8609C9.38235 117.658 27.415 144.221 53.4754 156.641L53.6356 156.305C27.6996 143.944 9.75439 117.509 9.69678 86.8602L9.32446 86.8609ZM55.4319 152.21C31.0665 140.541 14.2188 115.674 14.1646 86.8518L13.7923 86.8525C13.8468 115.823 30.7816 140.817 55.2711 152.546L55.4319 152.21ZM14.1646 86.8518C14.1617 85.2909 14.2081 83.7415 14.3022 82.205L13.9306 82.1822C13.836 83.7266 13.7894 85.2838 13.7923 86.8525L14.1646 86.8518ZM159.176 82.1184C159.268 83.5937 159.316 85.081 159.319 86.579L159.692 86.5783C159.689 85.0727 159.64 83.5779 159.548 82.0951L159.176 82.1184ZM164.159 86.5699C164.156 84.9237 164.102 83.2896 163.998 81.6691L163.626 81.693C163.73 83.3058 163.784 84.9321 163.787 86.5706L164.159 86.5699ZM119.429 156.914C145.897 144.569 164.218 117.698 164.159 86.5699L163.787 86.5706C163.845 117.548 145.613 144.291 119.272 156.577L119.429 156.914ZM159.319 86.579C159.374 115.712 142.256 140.868 117.509 152.468L117.667 152.805C142.54 141.146 159.747 115.861 159.692 86.5783L159.319 86.579ZM116.434 154.725C116.432 153.902 116.918 153.156 117.667 152.805L117.509 152.468C116.633 152.878 116.059 153.754 116.061 154.726L116.434 154.725ZM160.607 80.1109C161.911 79.3701 163.531 80.2101 163.626 81.693L163.998 81.6691C163.884 79.8983 161.954 78.9173 160.423 79.7871L160.607 80.1109ZM159.548 82.0951C159.497 81.2835 159.904 80.5106 160.607 80.1109L160.423 79.7871C159.593 80.2592 159.117 81.1688 159.176 82.1184L159.548 82.0951ZM56.8613 154.451C56.8595 153.49 56.2948 152.624 55.4319 152.21L55.2711 152.546C56.009 152.9 56.4874 153.638 56.489 154.452L56.8613 154.451ZM53.4754 156.641C55.0716 157.402 56.8646 156.206 56.8613 154.451L56.489 154.452C56.4918 155.946 54.9724 156.942 53.6356 156.305L53.4754 156.641ZM9.85171 81.7849C9.94549 80.2996 11.5681 79.4581 12.873 80.2017L13.0574 79.8782C11.5251 79.0051 9.59211 79.9878 9.48013 81.7614L9.85171 81.7849ZM44.0683 27.5425C43.3929 28.0305 42.4968 28.0892 41.7766 27.6788L41.5922 28.0023C42.443 28.4871 43.4961 28.4152 44.2864 27.8443L44.0683 27.5425ZM131.634 27.6289C130.915 28.0375 130.021 27.9789 129.346 27.4928L129.129 27.7949C129.918 28.3636 130.968 28.4352 131.818 27.9526L131.634 27.6289ZM119.272 156.577C117.94 157.198 116.436 156.208 116.434 154.725L116.061 154.726C116.064 156.468 117.839 157.656 119.429 156.914L119.272 156.577ZM41.7766 27.6788C40.4955 26.9488 40.3685 25.1661 41.5515 24.308L41.3329 24.0066C39.9204 25.0312 40.0875 27.1448 41.5922 28.0023L41.7766 27.6788ZM14.3022 82.205C14.3603 81.2575 13.8857 80.3502 13.0574 79.8782L12.873 80.2017C13.5744 80.6014 13.9803 81.3723 13.9306 82.1822L14.3022 82.205ZM131.859 24.2554C133.045 25.1134 132.918 26.8994 131.634 27.6289L131.818 27.9526C133.326 27.0957 133.493 24.9782 132.078 23.9538L131.859 24.2554Z" fill="#BFFFFF"/>
<path fill-rule="evenodd" clip-rule="evenodd" d="M86.8683 10.7012C102.928 10.6711 117.824 15.6661 130.069 24.2039C130.293 24.3602 130.276 24.6961 130.039 24.8311C129.913 24.9024 129.758 24.895 129.639 24.8124C117.517 16.3607 102.769 11.416 86.8697 11.4459C71.0389 11.4756 56.3686 16.4327 44.3075 24.8631C44.1889 24.946 44.0333 24.9534 43.9076 24.8818C43.6706 24.7467 43.6538 24.4114 43.8774 24.2551C56.0597 15.7389 70.8778 10.7313 86.8683 10.7012ZM12.2746 82.2773C12.0333 82.1398 11.732 82.3045 11.7193 82.5819C11.6645 83.785 11.638 84.9955 11.6402 86.2126C11.6957 115.721 28.7015 141.237 53.4267 153.564C53.6741 153.687 53.9641 153.506 53.9635 153.23C53.9633 153.088 53.8825 152.959 53.7556 152.895C29.2763 140.69 12.4398 115.427 12.3849 86.2112C12.3826 85.0073 12.4089 83.8099 12.4631 82.6198C12.4694 82.4793 12.3968 82.3469 12.2746 82.2773ZM161.635 85.9307C161.633 84.7906 161.605 83.6565 161.553 82.5289C161.546 82.3881 161.619 82.2553 161.741 82.1857C161.982 82.0487 162.283 82.2131 162.296 82.49C162.35 83.63 162.378 84.7766 162.38 85.9293C162.436 115.763 145.15 141.581 120.027 153.843C119.78 153.964 119.493 153.784 119.493 153.509C119.493 153.366 119.575 153.235 119.704 153.172C144.577 141.031 161.691 115.469 161.635 85.9307Z" fill="white"/>
<g filter="url(#filter2_f_862_1821)">
<path fill-rule="evenodd" clip-rule="evenodd" d="M9.42342 109.672C9.13064 109.505 8.78494 109.779 8.88283 110.101C12.6712 122.58 19.391 133.782 28.2394 142.906C28.4726 143.146 28.8773 142.98 28.8767 142.645C28.8765 142.547 28.8384 142.454 28.7706 142.384C20.0064 133.346 13.3502 122.25 9.59697 109.89C9.56903 109.798 9.50696 109.72 9.42342 109.672ZM64.1593 9.32581C64.2469 9.37571 64.3508 9.38821 64.4478 9.36073C71.3676 7.39971 78.6686 6.34396 86.215 6.32978C93.8124 6.3155 101.165 7.35788 108.134 9.31836C108.231 9.34554 108.334 9.33306 108.422 9.28347C108.709 9.12 108.659 8.6923 108.341 8.60267C101.306 6.62321 93.8831 5.57072 86.2136 5.58514C78.5956 5.59946 71.2254 6.66544 64.24 8.64544C63.9222 8.73552 63.8723 9.16226 64.1593 9.32581ZM143.162 143.352C143.162 143.252 143.202 143.157 143.272 143.086C152.415 133.883 159.341 122.475 163.182 109.732C163.21 109.64 163.272 109.561 163.356 109.514C163.649 109.347 163.994 109.62 163.897 109.943C160.02 122.807 153.028 134.324 143.797 143.614C143.562 143.85 143.163 143.684 143.162 143.352Z" fill="#FFC200"/>
</g>
<g filter="url(#filter3_f_862_1821)">
<path d="M35.6051 134.453C35.2572 134.412 35.0484 134.825 35.2911 135.078C40.8098 140.827 47.2199 145.543 54.1989 149.094C54.5092 149.252 54.8434 148.937 54.7073 148.616C54.6727 148.534 54.6103 148.468 54.5312 148.428C47.6298 144.915 41.2907 140.252 35.8327 134.566C35.7722 134.503 35.6918 134.463 35.6051 134.453Z" fill="#FFC200"/>
<path d="M46.1704 28.8406C46.2616 28.8514 46.3536 28.8285 46.4292 28.7762C50.2838 26.1086 54.4661 23.7913 58.9505 21.8876C63.4753 19.9667 68.0893 18.5595 72.7276 17.6398C72.8174 17.622 72.8976 17.5723 72.9533 17.4997C73.1627 17.2267 72.926 16.8412 72.5886 16.9081C67.8991 17.8376 63.2342 19.2601 58.6595 21.2021C54.1257 23.1269 49.8974 25.4699 46.0005 28.1671C45.7181 28.3625 45.8293 28.8 46.1704 28.8406Z" fill="#FFC200"/>
<path d="M152.727 107.939C152.691 107.855 152.687 107.762 152.715 107.676C155.203 99.9899 156.372 91.8574 156.074 83.6401C156.07 83.5525 156.098 83.4663 156.151 83.3967C156.364 83.1193 156.805 83.2574 156.818 83.607C157.12 91.916 155.939 100.139 153.422 107.911C153.315 108.239 152.861 108.257 152.727 107.939Z" fill="#FFC200"/>
</g>
<g filter="url(#filter5_f_862_1821)">
<path fill-rule="evenodd" clip-rule="evenodd" d="M269.573 9.29166C288.01 9.257 304.951 15.6859 318.25 26.4418C319.458 27.4184 319.267 29.2868 317.917 30.0539C317.095 30.5209 316.072 30.4241 315.335 29.831C302.822 19.7493 286.903 13.727 269.582 13.7595C252.329 13.7919 236.491 19.8258 224.038 29.8818C223.301 30.4769 222.275 30.5739 221.452 30.1049C220.105 29.3372 219.915 27.4722 221.12 26.4958C234.354 15.7672 251.209 9.32617 269.573 9.29166ZM196.306 75.77C194.934 74.9883 193.206 75.8177 193.021 77.3857C192.663 80.4294 192.481 83.527 192.487 86.6682C192.547 118.88 212.32 146.45 240.369 157.982C241.821 158.58 243.381 157.486 243.378 155.916C243.376 154.985 242.801 154.152 241.94 153.796C215.581 142.9 197.012 116.96 196.955 86.6598C196.949 83.7454 197.115 80.8706 197.443 78.0451C197.55 77.1272 197.109 76.2276 196.306 75.77ZM342.482 86.3862C342.476 83.537 342.307 80.7263 341.984 77.9631C341.876 77.0433 342.317 76.1416 343.123 75.6841C344.493 74.9053 346.218 75.7333 346.404 77.2988C346.759 80.2763 346.944 83.306 346.95 86.3778C347.011 118.911 326.947 146.784 298.496 158.215C297.05 158.796 295.507 157.71 295.504 156.151C295.502 155.21 296.086 154.369 296.958 154.016C323.696 143.215 342.539 116.989 342.482 86.3862Z" fill="#61FFFF" fill-opacity="0.5"/>
</g>
<g filter="url(#filter6_f_862_1821)">
<circle cx="269.717" cy="85.6765" r="74.9975" transform="rotate(89.8923 269.717 85.6765)" stroke="#61FFFF" stroke-width="0.744645"/>
</g>
<path d="M300.296 152.636L300.375 152.805L300.296 152.636ZM342.069 82.1067L342.255 82.0951L342.069 82.1067ZM238.059 152.378L238.139 152.21L238.059 152.378ZM236.263 156.473L236.183 156.641L236.263 156.473ZM192.373 81.7732L192.188 81.7614L192.373 81.7732ZM226.885 27.6934L226.776 27.5425L226.885 27.6934ZM311.945 27.6438L312.054 27.4928L311.945 27.6438ZM302.058 156.746L302.137 156.914L302.058 156.746ZM224.15 24.1573L224.259 24.308L224.15 24.1573ZM196.824 82.1936L197.01 82.205L196.824 82.1936ZM314.676 24.1046L314.785 23.9538L314.676 24.1046ZM314.785 23.9538C302.004 14.7052 286.287 9.26595 269.304 9.29788L269.305 9.6702C286.207 9.63843 301.847 15.0514 314.567 24.2554L314.785 23.9538ZM269.313 14.1381C285.184 14.1082 299.875 19.1748 311.836 27.7949L312.054 27.4928C300.031 18.8285 285.264 13.7358 269.312 13.7657L269.313 14.1381ZM226.994 27.8443C238.895 19.2462 253.509 14.1678 269.313 14.1381L269.312 13.7657C253.428 13.7956 238.739 18.9002 226.776 27.5425L226.994 27.8443ZM269.304 9.29788C252.393 9.32967 236.758 14.7816 224.04 24.0066L224.259 24.308C236.915 15.1274 252.474 9.70184 269.305 9.6702L269.304 9.29788ZM192.188 81.7614C192.081 83.4472 192.029 85.1476 192.032 86.8609L192.404 86.8602C192.401 85.155 192.453 83.4627 192.559 81.7849L192.188 81.7614ZM192.032 86.8609C192.09 117.658 210.122 144.221 236.183 156.641L236.343 156.305C210.407 143.944 192.462 117.509 192.404 86.8602L192.032 86.8609ZM238.139 152.21C213.774 140.541 196.926 115.674 196.872 86.8518L196.5 86.8525C196.554 115.823 213.489 140.817 237.979 152.546L238.139 152.21ZM196.872 86.8518C196.869 85.2909 196.916 83.7415 197.01 82.205L196.638 82.1822C196.543 83.7266 196.497 85.2838 196.5 86.8525L196.872 86.8518ZM341.884 82.1184C341.976 83.5937 342.024 85.081 342.027 86.579L342.399 86.5783C342.396 85.0727 342.348 83.5779 342.255 82.0951L341.884 82.1184ZM346.867 86.5699C346.864 84.9237 346.809 83.2896 346.705 81.6691L346.334 81.693C346.437 83.3058 346.492 84.9321 346.495 86.5706L346.867 86.5699ZM302.137 156.914C328.604 144.569 346.925 117.698 346.867 86.5699L346.495 86.5706C346.553 117.548 328.321 144.291 301.979 156.577L302.137 156.914ZM342.027 86.579C342.082 115.712 324.964 140.868 300.217 152.468L300.375 152.805C325.248 141.146 342.454 115.861 342.399 86.5783L342.027 86.579ZM299.141 154.725C299.139 153.902 299.626 153.156 300.375 152.805L300.217 152.468C299.341 152.878 298.767 153.754 298.769 154.726L299.141 154.725ZM343.315 80.1109C344.619 79.3701 346.238 80.2101 346.334 81.693L346.705 81.6691C346.591 79.8983 344.662 78.9173 343.131 79.7871L343.315 80.1109ZM342.255 82.0951C342.204 81.2835 342.611 80.5106 343.315 80.1109L343.131 79.7871C342.3 80.2592 341.824 81.1688 341.884 82.1184L342.255 82.0951ZM239.569 154.451C239.567 153.49 239.002 152.624 238.139 152.21L237.979 152.546C238.716 152.9 239.195 153.638 239.196 154.452L239.569 154.451ZM236.183 156.641C237.779 157.402 239.572 156.206 239.569 154.451L239.196 154.452C239.199 155.946 237.68 156.942 236.343 156.305L236.183 156.641ZM192.559 81.7849C192.653 80.2996 194.276 79.4581 195.581 80.2017L195.765 79.8782C194.233 79.0051 192.3 79.9878 192.188 81.7614L192.559 81.7849ZM226.776 27.5425C226.1 28.0305 225.204 28.0892 224.484 27.6788L224.3 28.0023C225.15 28.4871 226.204 28.4152 226.994 27.8443L226.776 27.5425ZM314.341 27.6289C313.622 28.0375 312.728 27.9789 312.054 27.4928L311.836 27.7949C312.625 28.3636 313.676 28.4352 314.525 27.9526L314.341 27.6289ZM301.979 156.577C300.647 157.198 299.144 156.208 299.141 154.725L298.769 154.726C298.772 156.468 300.546 157.656 302.137 156.914L301.979 156.577ZM224.484 27.6788C223.203 26.9488 223.076 25.1661 224.259 24.308L224.04 24.0066C222.628 25.0312 222.795 27.1448 224.3 28.0023L224.484 27.6788ZM197.01 82.205C197.068 81.2575 196.593 80.3502 195.765 79.8782L195.581 80.2017C196.282 80.6014 196.688 81.3723 196.638 82.1822L197.01 82.205ZM314.567 24.2554C315.753 25.1134 315.625 26.8994 314.341 27.6289L314.525 27.9526C316.033 27.0957 316.201 24.9782 314.785 23.9538L314.567 24.2554Z" fill="#BFFFFF"/>
<path fill-rule="evenodd" clip-rule="evenodd" d="M269.576 10.7012C285.636 10.6711 300.532 15.6661 312.776 24.2039C313 24.3602 312.984 24.6961 312.746 24.8311C312.621 24.9024 312.465 24.895 312.347 24.8124C300.224 16.3607 285.477 11.416 269.577 11.4459C253.746 11.4756 239.076 16.4327 227.015 24.8631C226.896 24.946 226.741 24.9534 226.615 24.8818C226.378 24.7467 226.361 24.4114 226.585 24.2551C238.767 15.7389 253.585 10.7313 269.576 10.7012ZM194.982 82.2773C194.741 82.1398 194.439 82.3045 194.427 82.5819C194.372 83.785 194.345 84.9955 194.348 86.2126C194.403 115.721 211.409 141.237 236.134 153.564C236.382 153.687 236.672 153.506 236.671 153.23C236.671 153.088 236.59 152.959 236.463 152.895C211.984 140.69 195.147 115.427 195.092 86.2112C195.09 85.0073 195.116 83.8099 195.171 82.6198C195.177 82.4793 195.104 82.3469 194.982 82.2773ZM344.343 85.9307C344.34 84.7906 344.313 83.6565 344.26 82.5289C344.253 82.3881 344.326 82.2553 344.449 82.1857C344.69 82.0487 344.991 82.2131 345.004 82.49C345.057 83.63 345.085 84.7766 345.087 85.9293C345.143 115.763 327.858 141.581 302.735 153.843C302.488 153.964 302.201 153.784 302.2 153.509C302.2 153.366 302.282 153.235 302.411 153.172C327.285 141.031 344.398 115.469 344.343 85.9307Z" fill="white"/>
<g filter="url(#filter7_f_862_1821)">
<path fill-rule="evenodd" clip-rule="evenodd" d="M192.131 109.672C191.838 109.505 191.492 109.779 191.59 110.101C195.379 122.58 202.099 133.782 210.947 142.906C211.18 143.146 211.585 142.98 211.584 142.645C211.584 142.547 211.546 142.454 211.478 142.384C202.714 133.346 196.058 122.25 192.304 109.89C192.277 109.798 192.214 109.72 192.131 109.672ZM246.867 9.32581C246.954 9.37571 247.058 9.38821 247.155 9.36073C254.075 7.39971 261.376 6.34396 268.922 6.32978C276.52 6.3155 283.873 7.35788 290.842 9.31836C290.938 9.34554 291.042 9.33306 291.129 9.28347C291.417 9.12 291.367 8.6923 291.048 8.60267C284.013 6.62321 276.591 5.57072 268.921 5.58514C261.303 5.59946 253.933 6.66544 246.948 8.64544C246.63 8.73552 246.58 9.16226 246.867 9.32581ZM325.87 143.352C325.87 143.252 325.909 143.157 325.979 143.086C335.123 133.883 342.049 122.475 345.89 109.732C345.918 109.64 345.98 109.561 346.064 109.514C346.356 109.347 346.701 109.62 346.604 109.943C342.727 122.807 335.736 134.324 326.504 143.614C326.27 143.85 325.87 143.684 325.87 143.352Z" fill="#FFC200"/>
</g>
<g filter="url(#filter8_f_862_1821)">
<path d="M218.313 134.453C217.965 134.412 217.756 134.825 217.999 135.078C223.517 140.827 229.927 145.543 236.906 149.094C237.217 149.252 237.551 148.937 237.415 148.616C237.38 148.534 237.318 148.468 237.239 148.428C230.337 144.915 223.998 140.252 218.54 134.566C218.48 134.503 218.399 134.463 218.313 134.453Z" fill="#FFC200"/>
<path d="M228.878 28.8406C228.969 28.8514 229.061 28.8285 229.137 28.7762C232.991 26.1086 237.174 23.7913 241.658 21.8876C246.183 19.9667 250.797 18.5595 255.435 17.6398C255.525 17.622 255.605 17.5723 255.661 17.4997C255.87 17.2267 255.634 16.8412 255.296 16.9081C250.607 17.8376 245.942 19.2601 241.367 21.2021C236.833 23.1269 232.605 25.4699 228.708 28.1671C228.426 28.3625 228.537 28.8 228.878 28.8406Z" fill="#FFC200"/>
<path d="M335.434 107.939C335.399 107.855 335.395 107.762 335.423 107.676C337.911 99.9899 339.079 91.8574 338.781 83.6401C338.778 83.5525 338.805 83.4663 338.859 83.3967C339.072 83.1193 339.513 83.2574 339.525 83.607C339.827 91.916 338.646 100.139 336.129 107.911C336.023 108.239 335.569 108.257 335.434 107.939Z" fill="#FFC200"/>
</g>
<g filter="url(#filter10_f_862_1821)">
<path fill-rule="evenodd" clip-rule="evenodd" d="M452.281 9.29166C470.718 9.257 487.658 15.6859 500.958 26.4418C502.165 27.4184 501.975 29.2868 500.624 30.0539C499.803 30.5209 498.779 30.4241 498.043 29.831C485.529 19.7493 469.61 13.727 452.289 13.7595C435.037 13.7919 419.198 19.8258 406.745 29.8818C406.008 30.4769 404.982 30.5739 404.159 30.1049C402.812 29.3372 402.622 27.4722 403.827 26.4958C417.062 15.7672 433.917 9.32617 452.281 9.29166ZM379.014 75.77C377.642 74.9883 375.914 75.8177 375.729 77.3857C375.37 80.4294 375.188 83.527 375.194 86.6682C375.255 118.88 395.028 146.45 423.076 157.982C424.529 158.58 426.088 157.486 426.085 155.916C426.084 154.985 425.509 154.152 424.648 153.796C398.289 142.9 379.719 116.96 379.662 86.6598C379.657 83.7454 379.823 80.8706 380.151 78.0451C380.257 77.1272 379.817 76.2276 379.014 75.77ZM525.189 86.3862C525.184 83.537 525.015 80.7263 524.691 77.9631C524.583 77.0433 525.025 76.1416 525.83 75.6841C527.201 74.9053 528.925 75.7333 529.112 77.2988C529.466 80.2763 529.651 83.306 529.657 86.3778C529.718 118.911 509.655 146.784 481.204 158.215C479.757 158.796 478.214 157.71 478.211 156.151C478.209 155.21 478.793 154.369 479.665 154.016C506.403 143.215 525.247 116.989 525.189 86.3862Z" fill="#61FFFF" fill-opacity="0.5"/>
</g>
<g filter="url(#filter11_f_862_1821)">
<circle cx="452.425" cy="85.6765" r="74.9975" transform="rotate(89.8923 452.425 85.6765)" stroke="#61FFFF" stroke-width="0.744645"/>
</g>
<path d="M483.003 152.636L483.082 152.805L483.003 152.636ZM529.227 81.681L529.413 81.6691L529.227 81.681ZM524.777 82.1067L524.963 82.0951L524.777 82.1067ZM420.767 152.378L420.847 152.21L420.767 152.378ZM418.971 156.473L418.89 156.641L418.971 156.473ZM375.081 81.7732L374.895 81.7614L375.081 81.7732ZM409.592 27.6934L409.483 27.5425L409.592 27.6934ZM494.652 27.6438L494.761 27.4928L494.652 27.6438ZM484.765 156.746L484.844 156.914L484.765 156.746ZM406.857 24.1573L406.967 24.308L406.857 24.1573ZM379.531 82.1936L379.717 82.205L379.531 82.1936ZM497.384 24.1046L497.493 23.9538L497.384 24.1046ZM497.493 23.9538C484.711 14.7052 468.995 9.26595 452.011 9.29788L452.012 9.6702C468.914 9.63843 484.555 15.0514 497.274 24.2554L497.493 23.9538ZM452.021 14.1381C467.892 14.1082 482.582 19.1748 494.544 27.7949L494.761 27.4928C482.738 18.8285 467.972 13.7358 452.02 13.7657L452.021 14.1381ZM409.701 27.8443C421.603 19.2462 436.217 14.1678 452.021 14.1381L452.02 13.7657C436.136 13.7956 421.446 18.9002 409.483 27.5425L409.701 27.8443ZM452.011 9.29788C435.1 9.32967 419.465 14.7816 406.748 24.0066L406.967 24.308C419.623 15.1274 435.182 9.70184 452.012 9.6702L452.011 9.29788ZM374.895 81.7614C374.789 83.4472 374.736 85.1476 374.74 86.8609L375.112 86.8602C375.109 85.155 375.161 83.4627 375.267 81.7849L374.895 81.7614ZM374.74 86.8609C374.797 117.658 392.83 144.221 418.89 156.641L419.051 156.305C393.115 143.944 375.169 117.509 375.112 86.8602L374.74 86.8609ZM420.847 152.21C396.482 140.541 379.634 115.674 379.58 86.8518L379.207 86.8525C379.262 115.823 396.197 140.817 420.686 152.546L420.847 152.21ZM379.58 86.8518C379.577 85.2909 379.623 83.7415 379.717 82.205L379.346 82.1822C379.251 83.7266 379.204 85.2838 379.207 86.8525L379.58 86.8518ZM524.591 82.1184C524.683 83.5937 524.731 85.081 524.734 86.579L525.107 86.5783C525.104 85.0727 525.055 83.5779 524.963 82.0951L524.591 82.1184ZM529.574 86.5699C529.571 84.9237 529.517 83.2896 529.413 81.6691L529.041 81.693C529.145 83.3058 529.199 84.9321 529.202 86.5706L529.574 86.5699ZM484.844 156.914C511.312 144.569 529.633 117.698 529.574 86.5699L529.202 86.5706C529.26 117.548 511.028 144.291 484.687 156.577L484.844 156.914ZM524.734 86.579C524.789 115.712 507.671 140.868 482.924 152.468L483.082 152.805C507.955 141.146 525.162 115.861 525.107 86.5783L524.734 86.579ZM481.849 154.725C481.847 153.902 482.333 153.156 483.082 152.805L482.924 152.468C482.048 152.878 481.474 153.754 481.476 154.726L481.849 154.725ZM526.022 80.1109C527.326 79.3701 528.946 80.2101 529.041 81.693L529.413 81.6691C529.299 79.8983 527.369 78.9173 525.838 79.7871L526.022 80.1109ZM524.963 82.0951C524.912 81.2835 525.319 80.5106 526.022 80.1109L525.838 79.7871C525.008 80.2592 524.532 81.1688 524.591 82.1184L524.963 82.0951ZM422.276 154.451C422.275 153.49 421.71 152.624 420.847 152.21L420.686 152.546C421.424 152.9 421.902 153.638 421.904 154.452L422.276 154.451ZM418.89 156.641C420.487 157.402 422.28 156.206 422.276 154.451L421.904 154.452C421.907 155.946 420.387 156.942 419.051 156.305L418.89 156.641ZM375.267 81.7849C375.361 80.2996 376.983 79.4581 378.288 80.2017L378.472 79.8782C376.94 79.0051 375.007 79.9878 374.895 81.7614L375.267 81.7849ZM409.483 27.5425C408.808 28.0305 407.912 28.0892 407.192 27.6788L407.007 28.0023C407.858 28.4871 408.911 28.4152 409.701 27.8443L409.483 27.5425ZM497.049 27.6289C496.33 28.0375 495.436 27.9789 494.761 27.4928L494.544 27.7949C495.333 28.3636 496.383 28.4352 497.233 27.9526L497.049 27.6289ZM484.687 156.577C483.355 157.198 481.851 156.208 481.849 154.725L481.476 154.726C481.48 156.468 483.254 157.656 484.844 156.914L484.687 156.577ZM407.192 27.6788C405.911 26.9488 405.784 25.1661 406.967 24.308L406.748 24.0066C405.335 25.0312 405.502 27.1448 407.007 28.0023L407.192 27.6788ZM379.717 82.205C379.775 81.2575 379.301 80.3502 378.472 79.8782L378.288 80.2017C378.989 80.6014 379.395 81.3723 379.346 82.1822L379.717 82.205ZM497.274 24.2554C498.46 25.1134 498.333 26.8994 497.049 27.6289L497.233 27.9526C498.741 27.0957 498.908 24.9782 497.493 23.9538L497.274 24.2554Z" fill="#BFFFFF"/>
<path fill-rule="evenodd" clip-rule="evenodd" d="M452.283 10.7012C468.343 10.6711 483.239 15.6661 495.484 24.2039C495.708 24.3602 495.691 24.6961 495.453 24.8311C495.328 24.9024 495.173 24.895 495.054 24.8124C482.932 16.3607 468.184 11.416 452.285 11.4459C436.454 11.4756 421.784 16.4327 409.722 24.8631C409.604 24.946 409.448 24.9534 409.323 24.8818C409.085 24.7467 409.069 24.4114 409.292 24.2551C421.475 15.7389 436.293 10.7313 452.283 10.7012ZM377.69 82.2773C377.448 82.1398 377.147 82.3045 377.134 82.5819C377.079 83.785 377.053 84.9955 377.055 86.2126C377.111 115.721 394.116 141.237 418.842 153.564C419.089 153.687 419.379 153.506 419.378 153.23C419.378 153.088 419.297 152.959 419.171 152.895C394.691 140.69 377.855 115.427 377.8 86.2112C377.798 85.0073 377.824 83.8099 377.878 82.6198C377.884 82.4793 377.812 82.3469 377.69 82.2773ZM527.05 85.9307C527.048 84.7906 527.02 83.6565 526.967 82.5289C526.961 82.3881 527.034 82.2553 527.156 82.1857C527.397 82.0487 527.698 82.2131 527.711 82.49C527.764 83.63 527.792 84.7766 527.795 85.9293C527.851 115.763 510.565 141.581 485.442 153.843C485.195 153.964 484.908 153.784 484.908 153.509C484.908 153.366 484.99 153.235 485.119 153.172C509.992 141.031 527.106 115.469 527.05 85.9307Z" fill="white"/>
<g filter="url(#filter12_f_862_1821)">
<path fill-rule="evenodd" clip-rule="evenodd" d="M374.838 109.672C374.546 109.505 374.2 109.779 374.298 110.101C378.086 122.58 384.806 133.782 393.654 142.906C393.888 143.146 394.292 142.98 394.292 142.645C394.291 142.547 394.253 142.454 394.186 142.384C385.421 133.346 378.765 122.25 375.012 109.89C374.984 109.798 374.922 109.72 374.838 109.672ZM429.574 9.32581C429.662 9.37571 429.766 9.38821 429.863 9.36073C436.783 7.39971 444.084 6.34396 451.63 6.32978C459.227 6.3155 466.58 7.35788 473.549 9.31836C473.646 9.34554 473.749 9.33306 473.836 9.28347C474.124 9.12 474.074 8.6923 473.756 8.60267C466.721 6.62321 459.298 5.57072 451.628 5.58514C444.011 5.59946 436.64 6.66544 429.655 8.64544C429.337 8.73552 429.287 9.16226 429.574 9.32581ZM508.577 143.352C508.577 143.252 508.616 143.157 508.687 143.086C517.83 133.883 524.756 122.475 528.597 109.732C528.625 109.64 528.687 109.561 528.771 109.514C529.064 109.347 529.409 109.62 529.312 109.943C525.435 122.807 518.443 134.324 509.211 143.614C508.977 143.85 508.578 143.684 508.577 143.352Z" fill="#FFC200"/>
</g>
<g filter="url(#filter13_f_862_1821)">
<path d="M401.02 134.453C400.672 134.412 400.463 134.825 400.706 135.078C406.225 140.827 412.635 145.543 419.614 149.094C419.924 149.252 420.258 148.937 420.122 148.616C420.088 148.534 420.025 148.468 419.946 148.428C413.045 144.915 406.706 140.252 401.248 134.566C401.187 134.503 401.107 134.463 401.02 134.453Z" fill="#FFC200"/>
<path d="M411.585 28.8406C411.677 28.8514 411.769 28.8285 411.844 28.7762C415.699 26.1086 419.881 23.7913 424.365 21.8876C428.89 19.9667 433.504 18.5595 438.143 17.6398C438.232 17.622 438.313 17.5723 438.368 17.4997C438.578 17.2267 438.341 16.8412 438.003 16.9081C433.314 17.8376 428.649 19.2601 424.074 21.2021C419.541 23.1269 415.312 25.4699 411.415 28.1671C411.133 28.3625 411.244 28.8 411.585 28.8406Z" fill="#FFC200"/>
<path d="M518.141 107.939C518.106 107.855 518.102 107.762 518.13 107.676C520.618 99.9899 521.787 91.8574 521.489 83.6401C521.485 83.5525 521.513 83.4663 521.566 83.3967C521.779 83.1193 522.22 83.2574 522.233 83.607C522.535 91.916 521.353 100.139 518.837 107.911C518.73 108.239 518.276 108.257 518.141 107.939Z" fill="#FFC200"/>

</g>
<g filter="url(#filter15_f_862_1821)">
<path fill-rule="evenodd" clip-rule="evenodd" d="M634.988 9.29166C653.425 9.257 670.366 15.6859 683.665 26.4418C684.872 27.4184 684.682 29.2868 683.332 30.0539C682.51 30.5209 681.486 30.4241 680.75 29.831C668.237 19.7493 652.318 13.727 634.996 13.7595C617.744 13.7919 601.906 19.8258 589.453 29.8818C588.716 30.4769 587.69 30.5739 586.867 30.1049C585.52 29.3372 585.33 27.4722 586.534 26.4958C599.769 15.7672 616.624 9.32617 634.988 9.29166ZM561.721 75.77C560.349 74.9883 558.621 75.8177 558.436 77.3857C558.078 80.4294 557.896 83.527 557.902 86.6682C557.962 118.88 577.735 146.45 605.784 157.982C607.236 158.58 608.796 157.486 608.793 155.916C608.791 154.985 608.216 154.152 607.355 153.796C580.996 142.9 562.427 116.96 562.37 86.6598C562.364 83.7454 562.53 80.8706 562.858 78.0451C562.964 77.1272 562.524 76.2276 561.721 75.77ZM707.897 86.3862C707.891 83.537 707.722 80.7263 707.398 77.9631C707.291 77.0433 707.732 76.1416 708.537 75.6841C709.908 74.9053 711.633 75.7333 711.819 77.2988C712.174 80.2763 712.359 83.306 712.364 86.3778C712.426 118.911 692.362 146.784 663.911 158.215C662.465 158.796 660.921 157.71 660.918 156.151C660.917 155.21 661.5 154.369 662.373 154.016C689.111 143.215 707.954 116.989 707.897 86.3862Z" fill="#61FFFF" fill-opacity="0.5"/>
</g>
<g filter="url(#filter16_f_862_1821)">
<circle cx="635.132" cy="85.6765" r="74.9975" transform="rotate(89.8923 635.132 85.6765)" stroke="#61FFFF" stroke-width="0.744645"/>
</g>
<path d="M665.71 152.636L665.789 152.805L665.71 152.636ZM711.934 81.681L712.12 81.6691L711.934 81.681ZM707.484 82.1067L707.67 82.0951L707.484 82.1067ZM603.474 152.378L603.554 152.21L603.474 152.378ZM601.678 156.473L601.598 156.641L601.678 156.473ZM557.788 81.7732L557.602 81.7614L557.788 81.7732ZM592.3 27.6934L592.191 27.5425L592.3 27.6934ZM677.36 27.6438L677.251 27.7949L677.36 27.6438ZM667.473 156.746L667.551 156.914L667.473 156.746ZM589.565 24.1573L589.455 24.0066L589.565 24.1573ZM562.239 82.1936L562.425 82.205L562.239 82.1936ZM680.091 24.1046L680.2 23.9538L680.091 24.1046ZM680.2 23.9538C667.419 14.7052 651.702 9.26595 634.719 9.29788L634.719 9.6702C651.621 9.63843 667.262 15.0514 679.982 24.2554L680.2 23.9538ZM634.728 14.1381C650.599 14.1082 665.289 19.1748 677.251 27.7949L677.469 27.4928C665.446 18.8285 650.679 13.7358 634.727 13.7657L634.728 14.1381ZM592.409 27.8443C604.31 19.2462 618.924 14.1678 634.728 14.1381L634.727 13.7657C618.843 13.7956 604.153 18.9002 592.191 27.5425L592.409 27.8443ZM634.719 9.29788C617.808 9.32967 602.173 14.7816 589.455 24.0066L589.674 24.308C602.33 15.1274 617.889 9.70184 634.719 9.6702L634.719 9.29788ZM557.602 81.7614C557.496 83.4472 557.444 85.1476 557.447 86.8609L557.819 86.8602C557.816 85.155 557.868 83.4627 557.974 81.7849L557.602 81.7614ZM557.447 86.8609C557.505 117.658 575.537 144.221 601.598 156.641L601.758 156.305C575.822 143.944 557.877 117.509 557.819 86.8602L557.447 86.8609ZM603.554 152.21C579.189 140.541 562.341 115.674 562.287 86.8518L561.915 86.8525C561.969 115.823 578.904 140.817 603.393 152.546L603.554 152.21ZM562.287 86.8518C562.284 85.2909 562.33 83.7415 562.425 82.205L562.053 82.1822C561.958 83.7266 561.912 85.2838 561.915 86.8525L562.287 86.8518ZM707.298 82.1184C707.391 83.5937 707.439 85.081 707.442 86.579L707.814 86.5783C707.811 85.0727 707.763 83.5779 707.67 82.0951L707.298 82.1184ZM712.282 86.5699C712.279 84.9237 712.224 83.2896 712.12 81.6691L711.748 81.693C711.852 83.3058 711.906 84.9321 711.909 86.5706L712.282 86.5699ZM667.551 156.914C694.019 144.569 712.34 117.698 712.282 86.5699L711.909 86.5706C711.968 117.548 693.735 144.291 667.394 156.577L667.551 156.914ZM707.442 86.579C707.496 115.712 690.379 140.868 665.631 152.468L665.789 152.805C690.663 141.146 707.869 115.861 707.814 86.5783L707.442 86.579ZM664.556 154.725C664.554 153.902 665.041 153.156 665.789 152.805L665.631 152.468C664.756 152.878 664.182 153.754 664.184 154.726L664.556 154.725ZM708.73 80.1109C710.033 79.3701 711.653 80.2101 711.748 81.693L712.12 81.6691C712.006 79.8983 710.077 78.9173 708.546 79.7871L708.73 80.1109ZM707.67 82.0951C707.619 81.2835 708.026 80.5106 708.73 80.1109L708.546 79.7871C707.715 80.2592 707.239 81.1688 707.298 82.1184L707.67 82.0951ZM604.984 154.451C604.982 153.49 604.417 152.624 603.554 152.21L603.393 152.546C604.131 152.9 604.61 153.638 604.611 154.452L604.984 154.451ZM601.598 156.641C603.194 157.402 604.987 156.206 604.984 154.451L604.611 154.452C604.614 155.946 603.095 156.942 601.758 156.305L601.598 156.641ZM557.974 81.7849C558.068 80.2996 559.69 79.4581 560.995 80.2017L561.18 79.8782C559.647 79.0051 557.714 79.9878 557.602 81.7614L557.974 81.7849ZM592.191 27.5425C591.515 28.0305 590.619 28.0892 589.899 27.6788L589.715 28.0023C590.565 28.4871 591.618 28.4152 592.409 27.8443L592.191 27.5425ZM679.756 27.6289C679.037 28.0375 678.143 27.9789 677.469 27.4928L677.251 27.7949C678.04 28.3636 679.091 28.4352 679.94 27.9526L679.756 27.6289ZM667.394 156.577C666.062 157.198 664.559 156.208 664.556 154.725L664.184 154.726C664.187 156.468 665.961 157.656 667.551 156.914L667.394 156.577ZM589.899 27.6788C588.618 26.9488 588.491 25.1661 589.674 24.308L589.455 24.0066C588.043 25.0312 588.21 27.1448 589.715 28.0023L589.899 27.6788ZM562.425 82.205C562.483 81.2575 562.008 80.3502 561.18 79.8782L560.995 80.2017C561.697 80.6014 562.103 81.3723 562.053 82.1822L562.425 82.205ZM679.982 24.2554C681.167 25.1134 681.04 26.8994 679.756 27.6289L679.94 27.9526C681.448 27.0957 681.616 24.9782 680.2 23.9538L679.982 24.2554Z" fill="#BFFFFF"/>
<path fill-rule="evenodd" clip-rule="evenodd" d="M634.991 10.7012C651.051 10.6711 665.947 15.6661 678.191 24.2039C678.415 24.3602 678.398 24.6961 678.161 24.8311C678.035 24.9024 677.88 24.895 677.762 24.8124C665.639 16.3607 650.892 11.416 634.992 11.4459C619.161 11.4756 604.491 16.4327 592.43 24.8631C592.311 24.946 592.156 24.9534 592.03 24.8818C591.793 24.7467 591.776 24.4114 592 24.2551C604.182 15.7389 619 10.7313 634.991 10.7012ZM560.397 82.2773C560.156 82.1398 559.854 82.3045 559.842 82.5819C559.787 83.785 559.76 84.9955 559.763 86.2126C559.818 115.721 576.824 141.237 601.549 153.564C601.796 153.687 602.086 153.506 602.086 153.23C602.086 153.088 602.005 152.959 601.878 152.895C577.399 140.69 560.562 115.427 560.507 86.2112C560.505 85.0073 560.531 83.8099 560.585 82.6198C560.592 82.4793 560.519 82.3469 560.397 82.2773ZM709.757 85.9307C709.755 84.7906 709.728 83.6565 709.675 82.5289C709.668 82.3881 709.741 82.2553 709.864 82.1857C710.105 82.0487 710.406 82.2131 710.418 82.49C710.472 83.63 710.5 84.7766 710.502 85.9293C710.558 115.763 693.272 141.581 668.149 153.843C667.903 153.964 667.616 153.784 667.615 153.509C667.615 153.366 667.697 153.235 667.826 153.172C692.699 141.031 709.813 115.469 709.757 85.9307Z" fill="white"/>
<g filter="url(#filter17_f_862_1821)">
<path fill-rule="evenodd" clip-rule="evenodd" d="M557.546 109.672C557.253 109.505 556.907 109.779 557.005 110.101C560.793 122.58 567.513 133.782 576.362 142.906C576.595 143.146 577 142.98 576.999 142.645C576.999 142.547 576.961 142.454 576.893 142.384C568.129 133.346 561.473 122.25 557.719 109.89C557.691 109.798 557.629 109.72 557.546 109.672ZM612.282 9.32581C612.369 9.37571 612.473 9.38821 612.57 9.36073C619.49 7.39971 626.791 6.34396 634.337 6.32978C641.935 6.3155 649.288 7.35788 656.257 9.31836C656.353 9.34554 656.457 9.33306 656.544 9.28347C656.832 9.12 656.781 8.6923 656.463 8.60267C649.428 6.62321 642.005 5.57072 634.336 5.58514C626.718 5.59946 619.348 6.66544 612.362 8.64544C612.045 8.73552 611.995 9.16226 612.282 9.32581ZM691.285 143.352C691.284 143.252 691.324 143.157 691.394 143.086C700.538 133.883 707.464 122.475 711.305 109.732C711.332 109.64 711.395 109.561 711.479 109.514C711.771 109.347 712.116 109.62 712.019 109.943C708.142 122.807 701.15 134.324 691.919 143.614C691.685 143.85 691.285 143.684 691.285 143.352Z" fill="#FFC200"/>
</g>
<g filter="url(#filter18_f_862_1821)">
<path d="M583.727 134.453C583.379 134.412 583.171 134.825 583.413 135.078C588.932 140.827 595.342 145.543 602.321 149.094C602.632 149.252 602.966 148.937 602.83 148.616C602.795 148.534 602.733 148.468 602.654 148.428C595.752 144.915 589.413 140.252 583.955 134.566C583.895 134.503 583.814 134.463 583.727 134.453Z" fill="#FFC200"/>
<path d="M594.293 28.8406C594.384 28.8514 594.476 28.8285 594.552 28.7762C598.406 26.1086 602.588 23.7913 607.073 21.8876C611.598 19.9667 616.212 18.5595 620.85 17.6398C620.94 17.622 621.02 17.5723 621.076 17.4997C621.285 17.2267 621.048 16.8412 620.711 16.9081C616.021 17.8376 611.357 19.2601 606.782 21.2021C602.248 23.1269 598.02 25.4699 594.123 28.1671C593.84 28.3625 593.952 28.8 594.293 28.8406Z" fill="#FFC200"/>
<path d="M700.849 107.939C700.813 107.855 700.809 107.762 700.837 107.676C703.326 99.9899 704.494 91.8574 704.196 83.6401C704.193 83.5525 704.22 83.4663 704.273 83.3967C704.486 83.1193 704.927 83.2574 704.94 83.607C705.242 91.916 704.061 100.139 701.544 107.911C701.438 108.239 700.984 108.257 700.849 107.939Z" fill="#FFC200"/>
</g>
<defs>
<filter id="filter0_f_862_1821" x="0.843554" y="0.356249" width="172.334" height="166.954" filterUnits="userSpaceOnUse" color-interpolation-filters="sRGB">
<feFlood flood-opacity="0" result="BackgroundImageFix"/>
<feBlend mode="normal" in="SourceGraphic" in2="BackgroundImageFix" result="shape"/>
<feGaussianBlur stdDeviation="4.46787" result="effect1_foregroundBlur_862_1821"/>
</filter>
<filter id="filter1_f_862_1821" x="10.8235" y="9.49033" width="152.372" height="152.372" filterUnits="userSpaceOnUse" color-interpolation-filters="sRGB">
<feFlood flood-opacity="0" result="BackgroundImageFix"/>
<feBlend mode="normal" in="SourceGraphic" in2="BackgroundImageFix" result="shape"/>
<feGaussianBlur stdDeviation="0.408157" result="effect1_foregroundBlur_862_1821"/>
</filter>
<filter id="filter2_f_862_1821" x="8.04953" y="4.76865" width="156.68" height="139.772" filterUnits="userSpaceOnUse" color-interpolation-filters="sRGB">
<feFlood flood-opacity="0" result="BackgroundImageFix"/>
<feBlend mode="normal" in="SourceGraphic" in2="BackgroundImageFix" result="shape"/>
<feGaussianBlur stdDeviation="0.408157" result="effect1_foregroundBlur_862_1821"/>
</filter>
<filter id="filter3_f_862_1821" x="34.283" y="15.9973" width="123.484" height="134.042" filterUnits="userSpaceOnUse" color-interpolation-filters="sRGB">
<feFlood flood-opacity="0" result="BackgroundImageFix"/>
<feBlend mode="normal" in="SourceGraphic" in2="BackgroundImageFix" result="shape"/>
<feGaussianBlur stdDeviation="0.451567" result="effect1_foregroundBlur_862_1821"/>
</filter>
<filter id="filter4_d_862_1821" x="61.7447" y="52.0887" width="49.2062" height="60.2865" filterUnits="userSpaceOnUse" color-interpolation-filters="sRGB">
<feFlood flood-opacity="0" result="BackgroundImageFix"/>
<feColorMatrix in="SourceAlpha" type="matrix" values="0 0 0 0 0 0 0 0 0 0 0 0 0 0 0 0 0 0 127 0" result="hardAlpha"/>
<feOffset/>
<feGaussianBlur stdDeviation="4.46787"/>
<feComposite in2="hardAlpha" operator="out"/>
<feColorMatrix type="matrix" values="0 0 0 0 0.466667 0 0 0 0 1 0 0 0 0 1 0 0 0 1 0"/>
<feBlend mode="normal" in2="BackgroundImageFix" result="effect1_dropShadow_862_1821"/>
<feBlend mode="normal" in="SourceGraphic" in2="effect1_dropShadow_862_1821" result="shape"/>
</filter>
<filter id="filter5_f_862_1821" x="183.551" y="0.356249" width="172.334" height="166.954" filterUnits="userSpaceOnUse" color-interpolation-filters="sRGB">
<feFlood flood-opacity="0" result="BackgroundImageFix"/>
<feBlend mode="normal" in="SourceGraphic" in2="BackgroundImageFix" result="shape"/>
<feGaussianBlur stdDeviation="4.46787" result="effect1_foregroundBlur_862_1821"/>
</filter>
<filter id="filter6_f_862_1821" x="193.531" y="9.49033" width="152.372" height="152.372" filterUnits="userSpaceOnUse" color-interpolation-filters="sRGB">
<feFlood flood-opacity="0" result="BackgroundImageFix"/>
<feBlend mode="normal" in="SourceGraphic" in2="BackgroundImageFix" result="shape"/>
<feGaussianBlur stdDeviation="0.408157" result="effect1_foregroundBlur_862_1821"/>
</filter>
<filter id="filter7_f_862_1821" x="190.757" y="4.76865" width="156.68" height="139.772" filterUnits="userSpaceOnUse" color-interpolation-filters="sRGB">
<feFlood flood-opacity="0" result="BackgroundImageFix"/>
<feBlend mode="normal" in="SourceGraphic" in2="BackgroundImageFix" result="shape"/>
<feGaussianBlur stdDeviation="0.408157" result="effect1_foregroundBlur_862_1821"/>
</filter>
<filter id="filter8_f_862_1821" x="216.991" y="15.9973" width="123.484" height="134.042" filterUnits="userSpaceOnUse" color-interpolation-filters="sRGB">
<feFlood flood-opacity="0" result="BackgroundImageFix"/>
<feBlend mode="normal" in="SourceGraphic" in2="BackgroundImageFix" result="shape"/>
<feGaussianBlur stdDeviation="0.451567" result="effect1_foregroundBlur_862_1821"/>
</filter>
<filter id="filter9_d_862_1821" x="244.269" y="52.8035" width="50.5763" height="60.1674" filterUnits="userSpaceOnUse" color-interpolation-filters="sRGB">
<feFlood flood-opacity="0" result="BackgroundImageFix"/>
<feColorMatrix in="SourceAlpha" type="matrix" values="0 0 0 0 0 0 0 0 0 0 0 0 0 0 0 0 0 0 127 0" result="hardAlpha"/>
<feOffset/>
<feGaussianBlur stdDeviation="4.46787"/>
<feComposite in2="hardAlpha" operator="out"/>
<feColorMatrix type="matrix" values="0 0 0 0 0.466667 0 0 0 0 1 0 0 0 0 1 0 0 0 1 0"/>
<feBlend mode="normal" in2="BackgroundImageFix" result="effect1_dropShadow_862_1821"/>
<feBlend mode="normal" in="SourceGraphic" in2="effect1_dropShadow_862_1821" result="shape"/>
</filter>
<filter id="filter10_f_862_1821" x="366.258" y="0.356249" width="172.334" height="166.954" filterUnits="userSpaceOnUse" color-interpolation-filters="sRGB">
<feFlood flood-opacity="0" result="BackgroundImageFix"/>
<feBlend mode="normal" in="SourceGraphic" in2="BackgroundImageFix" result="shape"/>
<feGaussianBlur stdDeviation="4.46787" result="effect1_foregroundBlur_862_1821"/>
</filter>
<filter id="filter11_f_862_1821" x="376.238" y="9.49033" width="152.372" height="152.372" filterUnits="userSpaceOnUse" color-interpolation-filters="sRGB">
<feFlood flood-opacity="0" result="BackgroundImageFix"/>
<feBlend mode="normal" in="SourceGraphic" in2="BackgroundImageFix" result="shape"/>
<feGaussianBlur stdDeviation="0.408157" result="effect1_foregroundBlur_862_1821"/>
</filter>
<filter id="filter12_f_862_1821" x="373.464" y="4.76865" width="156.68" height="139.772" filterUnits="userSpaceOnUse" color-interpolation-filters="sRGB">
<feFlood flood-opacity="0" result="BackgroundImageFix"/>
<feBlend mode="normal" in="SourceGraphic" in2="BackgroundImageFix" result="shape"/>
<feGaussianBlur stdDeviation="0.408157" result="effect1_foregroundBlur_862_1821"/>
</filter>
<filter id="filter13_f_862_1821" x="399.698" y="15.9973" width="123.484" height="134.042" filterUnits="userSpaceOnUse" color-interpolation-filters="sRGB">
<feFlood flood-opacity="0" result="BackgroundImageFix"/>
<feBlend mode="normal" in="SourceGraphic" in2="BackgroundImageFix" result="shape"/>
<feGaussianBlur stdDeviation="0.451567" result="effect1_foregroundBlur_862_1821"/>
</filter>
<filter id="filter14_d_862_1821" x="424.851" y="52.8035" width="53.0188" height="59.5717" filterUnits="userSpaceOnUse" color-interpolation-filters="sRGB">
<feFlood flood-opacity="0" result="BackgroundImageFix"/>
<feColorMatrix in="SourceAlpha" type="matrix" values="0 0 0 0 0 0 0 0 0 0 0 0 0 0 0 0 0 0 127 0" result="hardAlpha"/>
<feOffset/>
<feGaussianBlur stdDeviation="4.46787"/>
<feComposite in2="hardAlpha" operator="out"/>
<feColorMatrix type="matrix" values="0 0 0 0 0.466667 0 0 0 0 1 0 0 0 0 1 0 0 0 1 0"/>
<feBlend mode="normal" in2="BackgroundImageFix" result="effect1_dropShadow_862_1821"/>
<feBlend mode="normal" in="SourceGraphic" in2="effect1_dropShadow_862_1821" result="shape"/>
</filter>
<filter id="filter15_f_862_1821" x="548.966" y="0.356249" width="172.334" height="166.954" filterUnits="userSpaceOnUse" color-interpolation-filters="sRGB">
<feFlood flood-opacity="0" result="BackgroundImageFix"/>
<feBlend mode="normal" in="SourceGraphic" in2="BackgroundImageFix" result="shape"/>
<feGaussianBlur stdDeviation="4.46787" result="effect1_foregroundBlur_862_1821"/>
</filter>
<filter id="filter16_f_862_1821" x="558.946" y="9.49033" width="152.372" height="152.372" filterUnits="userSpaceOnUse" color-interpolation-filters="sRGB">
<feFlood flood-opacity="0" result="BackgroundImageFix"/>
<feBlend mode="normal" in="SourceGraphic" in2="BackgroundImageFix" result="shape"/>
<feGaussianBlur stdDeviation="0.408157" result="effect1_foregroundBlur_862_1821"/>
</filter>
<filter id="filter17_f_862_1821" x="556.172" y="4.76865" width="156.68" height="139.772" filterUnits="userSpaceOnUse" color-interpolation-filters="sRGB">
<feFlood flood-opacity="0" result="BackgroundImageFix"/>
<feBlend mode="normal" in="SourceGraphic" in2="BackgroundImageFix" result="shape"/>
<feGaussianBlur stdDeviation="0.408157" result="effect1_foregroundBlur_862_1821"/>
</filter>
<filter id="filter18_f_862_1821" x="582.405" y="15.9973" width="123.484" height="134.042" filterUnits="userSpaceOnUse" color-interpolation-filters="sRGB">
<feFlood flood-opacity="0" result="BackgroundImageFix"/>
<feBlend mode="normal" in="SourceGraphic" in2="BackgroundImageFix" result="shape"/>
<feGaussianBlur stdDeviation="0.451567" result="effect1_foregroundBlur_862_1821"/>
</filter>
<filter id="filter19_d_862_1821" x="609.328" y="52.8035" width="50.0998" height="60.227" filterUnits="userSpaceOnUse" color-interpolation-filters="sRGB">
<feFlood flood-opacity="0" result="BackgroundImageFix"/>
<feColorMatrix in="SourceAlpha" type="matrix" values="0 0 0 0 0 0 0 0 0 0 0 0 0 0 0 0 0 0 127 0" result="hardAlpha"/>
<feOffset/>
<feGaussianBlur stdDeviation="4.46787"/>
<feComposite in2="hardAlpha" operator="out"/>
<feColorMatrix type="matrix" values="0 0 0 0 0.466667 0 0 0 0 1 0 0 0 0 1 0 0 0 1 0"/>
<feBlend mode="normal" in2="BackgroundImageFix" result="effect1_dropShadow_862_1821"/>
<feBlend mode="normal" in="SourceGraphic" in2="effect1_dropShadow_862_1821" result="shape"/>
</filter>
</defs>
</svg>
