<svg width="32" height="33" viewBox="0 0 32 33" fill="none" xmlns="http://www.w3.org/2000/svg">
<path d="M16 2.95312C8.65335 2.95312 2.66669 8.93979 2.66669 16.2865C2.66669 23.6331 8.65335 29.6198 16 29.6198C17.84 29.6198 19.3334 28.1265 19.3334 26.2865C19.3334 25.4731 19.0267 24.6865 18.48 24.0598C18.3734 23.9265 18.3067 23.7798 18.3067 23.6198C18.3067 23.2465 18.6 22.9531 18.9734 22.9531H21.3334C25.7467 22.9531 29.3334 19.3665 29.3334 14.9531C29.3334 8.33979 23.3467 2.95312 16 2.95312ZM23.3334 17.6198C22.2267 17.6198 21.3334 16.7265 21.3334 15.6198C21.3334 14.5131 22.2267 13.6198 23.3334 13.6198C24.44 13.6198 25.3334 14.5131 25.3334 15.6198C25.3334 16.7265 24.44 17.6198 23.3334 17.6198ZM19.3334 12.2865C18.2267 12.2865 17.3334 11.3931 17.3334 10.2865C17.3334 9.17979 18.2267 8.28646 19.3334 8.28646C20.44 8.28646 21.3334 9.17979 21.3334 10.2865C21.3334 11.3931 20.44 12.2865 19.3334 12.2865ZM6.66669 15.6198C6.66669 14.5131 7.56002 13.6198 8.66669 13.6198C9.77335 13.6198 10.6667 14.5131 10.6667 15.6198C10.6667 16.7265 9.77335 17.6198 8.66669 17.6198C7.56002 17.6198 6.66669 16.7265 6.66669 15.6198ZM14.6667 10.2865C14.6667 11.3931 13.7734 12.2865 12.6667 12.2865C11.56 12.2865 10.6667 11.3931 10.6667 10.2865C10.6667 9.17979 11.56 8.28646 12.6667 8.28646C13.7734 8.28646 14.6667 9.17979 14.6667 10.2865Z" fill="#717689"/>
</svg>
