<svg width="20" height="20" viewBox="0 0 20 20" fill="none" xmlns="http://www.w3.org/2000/svg">
<path d="M0.5 8.29647C0.5 9.36703 0.701823 10.3711 1.10547 11.3086C1.50912 12.2462 2.06901 13.0718 2.78516 13.7855C3.50131 14.4992 4.32976 15.0572 5.27051 15.4595C6.21126 15.8618 7.21875 16.0629 8.29297 16.0629C9.13932 16.0629 9.9466 15.9331 10.7148 15.6736C11.4831 15.4141 12.1862 15.0572 12.8242 14.6031L17.6289 19.4011C17.7461 19.5114 17.8747 19.5942 18.0146 19.6493C18.1546 19.7045 18.3027 19.732 18.459 19.732C18.6803 19.732 18.8756 19.6817 19.0449 19.5811C19.2142 19.4806 19.346 19.3427 19.4404 19.1676C19.5348 18.9924 19.582 18.7977 19.582 18.5836C19.582 18.4279 19.5543 18.2819 19.499 18.1456C19.4437 18.0094 19.3639 17.8894 19.2598 17.7856L14.4844 12.9972C14.9857 12.3484 15.3779 11.6249 15.6611 10.8269C15.9443 10.0288 16.0859 9.18536 16.0859 8.29647C16.0859 7.2259 15.8841 6.22185 15.4805 5.2843C15.0768 4.34675 14.5169 3.52112 13.8008 2.80741C13.0847 2.0937 12.2562 1.53571 11.3154 1.13344C10.3747 0.731165 9.36719 0.530029 8.29297 0.530029C7.21875 0.530029 6.21126 0.731165 5.27051 1.13344C4.32976 1.53571 3.50131 2.0937 2.78516 2.80741C2.06901 3.52112 1.50912 4.34675 1.10547 5.2843C0.701823 6.22185 0.5 7.2259 0.5 8.29647ZM2.16992 8.29647C2.16992 7.453 2.3278 6.66305 2.64355 5.92663C2.95931 5.19022 3.39876 4.54139 3.96191 3.98015C4.52506 3.41892 5.17611 2.98097 5.91504 2.66628C6.65397 2.3516 7.44662 2.19426 8.29297 2.19426C9.13932 2.19426 9.93197 2.3516 10.6709 2.66628C11.4098 2.98097 12.0592 3.41892 12.6191 3.98015C13.179 4.54139 13.6185 5.19022 13.9375 5.92663C14.2565 6.66305 14.416 7.453 14.416 8.29647C14.416 9.13994 14.2565 9.92988 13.9375 10.6663C13.6185 11.4027 13.179 12.0499 12.6191 12.6079C12.0592 13.1659 11.4098 13.6039 10.6709 13.9218C9.93197 14.2397 9.13932 14.3987 8.29297 14.3987C7.44662 14.3987 6.65397 14.2397 5.91504 13.9218C5.17611 13.6039 4.52506 13.1659 3.96191 12.6079C3.39876 12.0499 2.95931 11.4027 2.64355 10.6663C2.3278 9.92988 2.16992 9.13994 2.16992 8.29647Z" fill="white" fill-opacity="0.6"/>
</svg>
