<svg width="20" height="18" viewBox="0 0 20 18" fill="none" xmlns="http://www.w3.org/2000/svg">
<path d="M17.6441 2.74109C18.5012 2.20491 19.1425 1.36063 19.4483 0.3659C18.6429 0.865953 17.7618 1.2182 16.8429 1.40742C15.569 -0.00275779 13.5505 -0.345931 11.9155 0.569657C10.2804 1.48525 9.4335 3.43293 9.84798 5.32438C6.54901 5.15107 3.47544 3.5204 1.3921 0.838136C0.304847 2.80054 0.860458 5.30916 2.66182 6.57101C2.01043 6.54909 1.37348 6.36454 0.804092 6.03274C0.804092 6.05075 0.804092 6.06876 0.804092 6.08676C0.804469 8.13094 2.18125 9.89175 4.09599 10.2969C3.49179 10.4689 2.85802 10.4942 2.24304 10.3709C2.78153 12.1191 4.32121 13.3167 6.07611 13.3524C4.62265 14.5461 2.82769 15.1935 0.980017 15.1903C0.65252 15.1908 0.32528 15.1711 0 15.1313C1.87627 16.393 4.06002 17.0626 6.29028 17.0603C9.39311 17.0826 12.375 15.8025 14.569 13.5065C16.763 11.2105 17.986 8.09002 17.9644 4.84314C17.9644 4.65705 17.9603 4.47196 17.952 4.28786C18.7556 3.68016 19.4491 2.92733 20 2.06475C19.2514 2.41199 18.4573 2.63996 17.6441 2.74109Z" fill="#14141F"/>
</svg>
