<svg width="32" height="32" viewBox="0 0 32 32" fill="none" xmlns="http://www.w3.org/2000/svg">
<path d="M28.0002 27.0002H22.9202C25.5693 25.3312 27.5267 22.7617 28.4322 19.7644C29.3378 16.7671 29.1306 13.5437 27.8488 10.687C26.567 7.83034 24.2967 5.53258 21.4557 4.21643C18.6147 2.90028 15.394 2.65425 12.386 3.5236C9.37805 4.39296 6.78516 6.31922 5.08431 8.94805C3.38347 11.5769 2.68906 14.7315 3.12884 17.8315C3.56862 20.9315 5.113 23.7685 7.47788 25.8206C9.84277 27.8726 12.8691 29.0017 16.0002 29.0002H28.0002C28.2654 29.0002 28.5198 28.8948 28.7073 28.7073C28.8948 28.5198 29.0002 28.2654 29.0002 28.0002C29.0002 27.735 28.8948 27.4806 28.7073 27.2931C28.5198 27.1056 28.2654 27.0002 28.0002 27.0002ZM5.00018 16.0002C5.00018 13.8246 5.64532 11.6979 6.85402 9.88893C8.06271 8.07999 9.78068 6.67009 11.7907 5.83753C13.8007 5.00496 16.0124 4.78713 18.1462 5.21156C20.28 5.636 22.24 6.68365 23.7784 8.22203C25.3167 9.76041 26.3644 11.7204 26.7888 13.8542C27.2133 15.988 26.9954 18.1997 26.1629 20.2097C25.3303 22.2197 23.9204 23.9377 22.1115 25.1464C20.3025 26.3551 18.1758 27.0002 16.0002 27.0002C13.0838 26.9969 10.2878 25.8369 8.22566 23.7747C6.16348 21.7125 5.00349 18.9166 5.00018 16.0002ZM16.0002 13.0002C16.5935 13.0002 17.1735 12.8243 17.6669 12.4946C18.1602 12.165 18.5448 11.6964 18.7718 11.1483C18.9989 10.6001 19.0583 9.99687 18.9425 9.41493C18.8268 8.83299 18.5411 8.29844 18.1215 7.87888C17.7019 7.45932 17.1674 7.1736 16.5855 7.05785C16.0035 6.94209 15.4003 7.0015 14.8521 7.22856C14.304 7.45563 13.8354 7.84014 13.5058 8.33349C13.1761 8.82684 13.0002 9.40686 13.0002 10.0002C13.0002 10.7959 13.3163 11.5589 13.8789 12.1215C14.4415 12.6841 15.2045 13.0002 16.0002 13.0002ZM16.0002 9.0002C16.198 9.0002 16.3913 9.05885 16.5558 9.16873C16.7202 9.27861 16.8484 9.43479 16.9241 9.61752C16.9997 9.80024 17.0196 10.0013 16.981 10.1953C16.9424 10.3893 16.8471 10.5675 16.7073 10.7073C16.5674 10.8472 16.3893 10.9424 16.1953 10.981C16.0013 11.0196 15.8002 10.9998 15.6175 10.9241C15.4348 10.8484 15.2786 10.7202 15.1687 10.5558C15.0588 10.3913 15.0002 10.198 15.0002 10.0002C15.0002 9.73499 15.1055 9.48063 15.2931 9.2931C15.4806 9.10556 15.735 9.0002 16.0002 9.0002ZM19.0002 22.0002C19.0002 21.4069 18.8242 20.8268 18.4946 20.3335C18.1649 19.8401 17.6964 19.4556 17.1482 19.2286C16.6001 19.0015 15.9969 18.9421 15.4149 19.0578C14.833 19.1736 14.2984 19.4593 13.8789 19.8789C13.4593 20.2984 13.1736 20.833 13.0578 21.4149C12.9421 21.9969 13.0015 22.6001 13.2285 23.1483C13.4556 23.6964 13.8401 24.165 14.3335 24.4946C14.8268 24.8243 15.4068 25.0002 16.0002 25.0002C16.7958 25.0002 17.5589 24.6841 18.1215 24.1215C18.6841 23.5589 19.0002 22.7959 19.0002 22.0002ZM15.0002 22.0002C15.0002 21.8024 15.0588 21.6091 15.1687 21.4446C15.2786 21.2802 15.4348 21.152 15.6175 21.0763C15.8002 21.0006 16.0013 20.9808 16.1953 21.0194C16.3893 21.058 16.5674 21.1532 16.7073 21.2931C16.8471 21.4329 16.9424 21.6111 16.981 21.8051C17.0196 21.9991 16.9997 22.2002 16.9241 22.3829C16.8484 22.5656 16.7202 22.7218 16.5558 22.8317C16.3913 22.9416 16.198 23.0002 16.0002 23.0002C15.735 23.0002 15.4806 22.8948 15.2931 22.7073C15.1055 22.5198 15.0002 22.2654 15.0002 22.0002ZM22.0002 19.0002C22.5935 19.0002 23.1735 18.8243 23.6669 18.4946C24.1602 18.165 24.5448 17.6964 24.7718 17.1483C24.9989 16.6001 25.0583 15.9969 24.9425 15.4149C24.8268 14.833 24.5411 14.2984 24.1215 13.8789C23.7019 13.4593 23.1674 13.1736 22.5855 13.0578C22.0035 12.9421 21.4003 13.0015 20.8521 13.2286C20.304 13.4556 19.8354 13.8401 19.5058 14.3335C19.1761 14.8268 19.0002 15.4069 19.0002 16.0002C19.0002 16.7959 19.3163 17.5589 19.8789 18.1215C20.4415 18.6841 21.2045 19.0002 22.0002 19.0002ZM22.0002 15.0002C22.198 15.0002 22.3913 15.0589 22.5558 15.1687C22.7202 15.2786 22.8484 15.4348 22.9241 15.6175C22.9998 15.8002 23.0196 16.0013 22.981 16.1953C22.9424 16.3893 22.8471 16.5675 22.7073 16.7073C22.5674 16.8472 22.3893 16.9424 22.1953 16.981C22.0013 17.0196 21.8002 16.9998 21.6175 16.9241C21.4348 16.8484 21.2786 16.7202 21.1687 16.5558C21.0588 16.3913 21.0002 16.198 21.0002 16.0002C21.0002 15.735 21.1055 15.4806 21.2931 15.2931C21.4806 15.1056 21.735 15.0002 22.0002 15.0002ZM10.0002 13.0002C9.40684 13.0002 8.82682 13.1761 8.33347 13.5058C7.84012 13.8354 7.45561 14.304 7.22854 14.8522C7.00148 15.4003 6.94207 16.0035 7.05783 16.5855C7.17358 17.1674 7.4593 17.702 7.87886 18.1215C8.29842 18.5411 8.83297 18.8268 9.41491 18.9426C9.99685 19.0583 10.6001 18.9989 11.1482 18.7718C11.6964 18.5448 12.1649 18.1603 12.4946 17.6669C12.8242 17.1736 13.0002 16.5935 13.0002 16.0002C13.0002 15.2046 12.6841 14.4415 12.1215 13.8789C11.5589 13.3163 10.7958 13.0002 10.0002 13.0002ZM10.0002 17.0002C9.8024 17.0002 9.60906 16.9416 9.44461 16.8317C9.28016 16.7218 9.15199 16.5656 9.0763 16.3829C9.00062 16.2002 8.98081 15.9991 9.0194 15.8051C9.05798 15.6111 9.15322 15.4329 9.29308 15.2931C9.43293 15.1532 9.61111 15.058 9.80509 15.0194C9.99907 14.9808 10.2001 15.0006 10.3829 15.0763C10.5656 15.152 10.7218 15.2802 10.8317 15.4446C10.9415 15.6091 11.0002 15.8024 11.0002 16.0002C11.0002 16.2654 10.8948 16.5198 10.7073 16.7073C10.5198 16.8948 10.2654 17.0002 10.0002 17.0002Z" fill="white"/>
</svg>
