<svg width="25" height="25" viewBox="0 0 25 25" fill="none" xmlns="http://www.w3.org/2000/svg">
<path d="M20.3027 7.32699H17.014C17.0505 7.29606 17.088 7.26606 17.1237 7.23324C17.4084 6.98028 17.6379 6.6713 17.7977 6.3256C17.9576 5.97991 18.0444 5.60495 18.0527 5.22418C18.065 4.80762 17.9921 4.39295 17.8384 4.00561C17.6846 3.61826 17.4533 3.26643 17.1587 2.97171C16.8641 2.67699 16.5123 2.44559 16.125 2.29174C15.7377 2.13788 15.323 2.0648 14.9065 2.07699C14.5256 2.0852 14.1504 2.17195 13.8046 2.33181C13.4587 2.49168 13.1495 2.72121 12.8965 3.00605C12.5463 3.41189 12.2616 3.86991 12.0527 4.36355C11.8438 3.86991 11.5592 3.41189 11.209 3.00605C10.9559 2.72121 10.6468 2.49168 10.3009 2.33181C9.95506 2.17195 9.57992 2.0852 9.19898 2.07699C8.78242 2.0648 8.36777 2.13788 7.98047 2.29174C7.59318 2.44559 7.24141 2.67699 6.94678 2.97171C6.65215 3.26643 6.42086 3.61826 6.26712 4.00561C6.11337 4.39295 6.04042 4.80762 6.05273 5.22418C6.06107 5.60495 6.14788 5.97991 6.30774 6.3256C6.4676 6.6713 6.69707 6.98028 6.9818 7.23324C7.01742 7.26418 7.05492 7.29418 7.09148 7.32699H3.80273C3.40491 7.32699 3.02338 7.48503 2.74207 7.76633C2.46077 8.04764 2.30273 8.42917 2.30273 8.82699V11.827C2.30273 12.2248 2.46077 12.6063 2.74207 12.8877C3.02338 13.169 3.40491 13.327 3.80273 13.327V19.327C3.80273 19.7248 3.96077 20.1063 4.24207 20.3877C4.52338 20.669 4.90491 20.827 5.30273 20.827H18.8027C19.2006 20.827 19.5821 20.669 19.8634 20.3877C20.1447 20.1063 20.3027 19.7248 20.3027 19.327V13.327C20.7006 13.327 21.0821 13.169 21.3634 12.8877C21.6447 12.6063 21.8027 12.2248 21.8027 11.827V8.82699C21.8027 8.42917 21.6447 8.04764 21.3634 7.76633C21.0821 7.48503 20.7006 7.32699 20.3027 7.32699ZM14.0215 3.9998C14.1402 3.86867 14.2848 3.7635 14.4461 3.6909C14.6075 3.6183 14.7821 3.57984 14.959 3.57793H15.0049C15.2123 3.57923 15.4173 3.62189 15.6079 3.70343C15.7986 3.78497 15.971 3.90375 16.1152 4.05279C16.2593 4.20183 16.3723 4.37815 16.4474 4.5714C16.5225 4.76466 16.5584 4.97097 16.5527 5.17824C16.5508 5.35515 16.5124 5.52975 16.4398 5.69108C16.3672 5.85241 16.262 5.99699 16.1309 6.11574C15.2412 6.90324 13.7646 7.18074 12.8496 7.27824C12.9621 6.28543 13.2715 4.84262 14.0215 3.9998ZM8.01305 4.03355C8.30362 3.74301 8.69714 3.57893 9.10805 3.57699H9.15398C9.33089 3.5789 9.50549 3.61736 9.66682 3.68996C9.82815 3.76256 9.97273 3.86773 10.0915 3.99887C10.878 4.88762 11.1555 6.36137 11.253 7.27262C10.3418 7.17887 8.86805 6.89762 7.9793 6.11105C7.84816 5.9923 7.74299 5.84772 7.67039 5.68639C7.59779 5.52506 7.55933 5.35046 7.55742 5.17355C7.55161 4.96284 7.58866 4.75314 7.66634 4.55717C7.74402 4.36121 7.8607 4.18306 8.0093 4.03355H8.01305ZM3.80273 8.82699H11.3027V11.827H3.80273V8.82699ZM5.30273 13.327H11.3027V19.327H5.30273V13.327ZM18.8027 19.327H12.8027V13.327H18.8027V19.327ZM20.3027 11.827H12.8027V8.82699H20.3027V11.827Z" fill="#121826"/>
</svg>
