<svg width="32" height="33" viewBox="0 0 32 33" fill="none" xmlns="http://www.w3.org/2000/svg">
<circle cx="16" cy="16.208" r="16" fill="#141517"/>
<path d="M10.5485 13.8656C8.83093 14.0478 8.09059 13.6102 7.2674 13.1039C7.09959 13.0007 6.90123 13.1394 6.94894 13.3305L8.69501 20.3249C8.85528 20.9669 9.43201 21.4173 10.0937 21.4173H22.7076L24.7134 13.3825C24.7659 13.1723 24.5396 13.0071 24.355 13.1206C23.5318 13.6269 22.8443 14.0478 21.1268 13.8656C19.3596 13.6781 17.6602 11.7275 16.6476 10.1688C16.3033 9.63867 15.372 9.63867 15.0276 10.1688C14.015 11.7275 12.3157 13.6781 10.5485 13.8656Z" fill="url(#paint0_linear_1286_26381)"/>
<path fill-rule="evenodd" clip-rule="evenodd" d="M15.8386 9.77051V21.4166H8.96789L6.94911 13.3299C6.90139 13.1387 7.09976 13 7.26757 13.1032C8.09075 13.6095 8.83109 14.0471 10.5487 13.8649C12.3158 13.6774 14.0152 11.7268 15.0278 10.1681C15.2001 9.90281 15.5194 9.77029 15.8386 9.77051Z" fill="url(#paint1_linear_1286_26381)"/>
<circle cx="15.8376" cy="7.0358" r="1.13834" fill="#FFAC30"/>
<circle cx="25.6595" cy="11.8563" r="0.803533" fill="#FFAC30"/>
<ellipse cx="6.34113" cy="11.8563" rx="0.803533" ry="0.803533" fill="#FFAC30"/>
<rect x="9.10889" y="22.4365" width="13.5931" height="1.23878" fill="url(#paint2_linear_1286_26381)"/>
<defs>
<linearGradient id="paint0_linear_1286_26381" x1="15.8376" y1="15.0636" x2="23.7733" y2="17.4815" gradientUnits="userSpaceOnUse">
<stop stop-color="#FFA800"/>
<stop offset="1" stop-color="#FFD7B1"/>
</linearGradient>
<linearGradient id="paint1_linear_1286_26381" x1="9.71163" y1="21.4166" x2="14.8211" y2="16.4059" gradientUnits="userSpaceOnUse">
<stop stop-color="#FFA800"/>
<stop offset="1" stop-color="#FFE5B1"/>
</linearGradient>
<linearGradient id="paint2_linear_1286_26381" x1="15.9054" y1="23.0559" x2="16.9036" y2="25.407" gradientUnits="userSpaceOnUse">
<stop stop-color="#FFA800"/>
<stop offset="1" stop-color="#FFECB1"/>
</linearGradient>
</defs>
</svg>
