<svg width="32" height="33" viewBox="0 0 32 33" fill="none" xmlns="http://www.w3.org/2000/svg">
<circle cx="16" cy="16.208" r="16" fill="#141517"/>
<path d="M10.548 13.864C8.83044 14.0463 8.0901 13.6086 7.26691 13.1024C7.0991 12.9992 6.90074 13.1379 6.94846 13.329L8.77806 20.658C8.88923 21.1033 9.28929 21.4158 9.74829 21.4158H21.926C22.385 21.4158 22.7851 21.1033 22.8963 20.658L24.7129 13.381C24.7654 13.1707 24.5392 13.0056 24.3545 13.1191C23.5314 13.6254 22.8439 14.0463 21.1263 13.864C19.5717 13.6991 18.0695 12.2533 17.0413 10.8864C16.5141 10.1856 15.1602 10.1856 14.633 10.8864C13.6048 12.2533 12.1026 13.6991 10.548 13.864Z" fill="url(#paint0_linear_1286_26403)"/>
<path fill-rule="evenodd" clip-rule="evenodd" d="M14.8616 10.8627C15.372 10.652 15.8376 11.1247 15.8376 11.6769V20.4165C15.8376 20.9688 15.3899 21.4165 14.8376 21.4165H9.74796C9.28897 21.4165 8.88891 21.104 8.77774 20.6587L6.94813 13.3297C6.90042 13.1386 7.09878 12.9999 7.26659 13.1031C8.08977 13.6093 8.83012 14.047 10.5477 13.8647C11.8744 13.724 13.1629 12.5895 14.1513 11.3731C14.3336 11.1487 14.5809 10.9786 14.8616 10.8627Z" fill="url(#paint1_linear_1286_26403)"/>
<ellipse cx="15.8371" cy="7.03482" rx="1.13834" ry="1.13834" fill="#CDCDCC"/>
<ellipse cx="25.659" cy="11.8553" rx="0.803534" ry="0.803533" fill="#CDCDCC"/>
<circle cx="6.34064" cy="11.8553" r="0.803533" fill="#CDCDCC"/>
<rect x="9.1084" y="22.4355" width="13.5931" height="1.23878" fill="url(#paint2_linear_1286_26403)"/>
<defs>
<linearGradient id="paint0_linear_1286_26403" x1="14.6637" y1="16.3042" x2="20.8167" y2="12.0794" gradientUnits="userSpaceOnUse">
<stop offset="0.0468122" stop-color="#747474"/>
<stop offset="1" stop-color="#DCDCDC"/>
</linearGradient>
<linearGradient id="paint1_linear_1286_26403" x1="8.34268" y1="20.2192" x2="9.46161" y2="15.4107" gradientUnits="userSpaceOnUse">
<stop offset="0.0468122" stop-color="#747474"/>
<stop offset="1" stop-color="#DCDCDC"/>
</linearGradient>
<linearGradient id="paint2_linear_1286_26403" x1="15.9049" y1="23.0549" x2="16.9031" y2="25.406" gradientUnits="userSpaceOnUse">
<stop stop-color="#989898"/>
<stop offset="1" stop-color="#E0E0E0"/>
</linearGradient>
</defs>
</svg>
