<svg width="33" height="33" viewBox="0 0 33 33" fill="none" xmlns="http://www.w3.org/2000/svg">
<path d="M28.922 13.413C28.4507 12.9205 27.9632 12.413 27.7795 11.9668C27.6095 11.558 27.5995 10.8805 27.5895 10.2243C27.5707 9.0043 27.5507 7.6218 26.5895 6.66055C25.6282 5.6993 24.2457 5.6793 23.0257 5.66055C22.3695 5.65055 21.692 5.64055 21.2832 5.47055C20.8382 5.2868 20.3295 4.7993 19.837 4.32805C18.9745 3.4993 17.9945 2.56055 16.6895 2.56055C15.3845 2.56055 14.4057 3.4993 13.542 4.32805C13.0495 4.7993 12.542 5.2868 12.0957 5.47055C11.6895 5.64055 11.0095 5.65055 10.3532 5.66055C9.1332 5.6793 7.7507 5.6993 6.78945 6.66055C5.8282 7.6218 5.81445 9.0043 5.78945 10.2243C5.77945 10.8805 5.76945 11.558 5.59945 11.9668C5.4157 12.4118 4.9282 12.9205 4.45695 13.413C3.6282 14.2755 2.68945 15.2555 2.68945 16.5605C2.68945 17.8655 3.6282 18.8443 4.45695 19.708C4.9282 20.2005 5.4157 20.708 5.59945 21.1543C5.76945 21.563 5.77945 22.2405 5.78945 22.8968C5.8082 24.1168 5.8282 25.4993 6.78945 26.4605C7.7507 27.4218 9.1332 27.4418 10.3532 27.4605C11.0095 27.4705 11.687 27.4805 12.0957 27.6505C12.5407 27.8343 13.0495 28.3218 13.542 28.793C14.4045 29.6218 15.3845 30.5605 16.6895 30.5605C17.9945 30.5605 18.9732 29.6218 19.837 28.793C20.3295 28.3218 20.837 27.8343 21.2832 27.6505C21.692 27.4805 22.3695 27.4705 23.0257 27.4605C24.2457 27.4418 25.6282 27.4218 26.5895 26.4605C27.5507 25.4993 27.5707 24.1168 27.5895 22.8968C27.5995 22.2405 27.6095 21.563 27.7795 21.1543C27.9632 20.7093 28.4507 20.2005 28.922 19.708C29.7507 18.8455 30.6895 17.8655 30.6895 16.5605C30.6895 15.2555 29.7507 14.2768 28.922 13.413ZM27.4782 18.3243C26.8795 18.9493 26.2595 19.5955 25.9307 20.3893C25.6157 21.1518 25.602 22.023 25.5895 22.8668C25.577 23.7418 25.5632 24.658 25.1745 25.0455C24.7857 25.433 23.8757 25.448 22.9957 25.4605C22.152 25.473 21.2807 25.4868 20.5182 25.8018C19.7245 26.1305 19.0782 26.7505 18.4532 27.3493C17.8282 27.948 17.1895 28.5605 16.6895 28.5605C16.1895 28.5605 15.5457 27.9455 14.9257 27.3493C14.3057 26.753 13.6545 26.1305 12.8607 25.8018C12.0982 25.4868 11.227 25.473 10.3832 25.4605C9.5082 25.448 8.59195 25.4343 8.20445 25.0455C7.81695 24.6568 7.80195 23.7468 7.78945 22.8668C7.77695 22.023 7.7632 21.1518 7.4482 20.3893C7.11945 19.5955 6.49945 18.9493 5.9007 18.3243C5.30195 17.6993 4.68945 17.0605 4.68945 16.5605C4.68945 16.0605 5.30445 15.4168 5.9007 14.7968C6.49695 14.1768 7.11945 13.5255 7.4482 12.7318C7.7632 11.9693 7.77695 11.098 7.78945 10.2543C7.80195 9.3793 7.8157 8.46305 8.20445 8.07555C8.5932 7.68805 9.5032 7.67305 10.3832 7.66055C11.227 7.64805 12.0982 7.6343 12.8607 7.3193C13.6545 6.99055 14.3007 6.37055 14.9257 5.7718C15.5507 5.17305 16.1895 4.56055 16.6895 4.56055C17.1895 4.56055 17.8332 5.17555 18.4532 5.7718C19.0732 6.36805 19.7245 6.99055 20.5182 7.3193C21.2807 7.6343 22.152 7.64805 22.9957 7.66055C23.8707 7.67305 24.787 7.6868 25.1745 8.07555C25.562 8.4643 25.577 9.3743 25.5895 10.2543C25.602 11.098 25.6157 11.9693 25.9307 12.7318C26.2595 13.5255 26.8795 14.1718 27.4782 14.7968C28.077 15.4218 28.6895 16.0605 28.6895 16.5605C28.6895 17.0605 28.0745 17.7043 27.4782 18.3243ZM18.1895 23.0605C18.1895 23.3572 18.1015 23.6472 17.9367 23.8939C17.7718 24.1406 17.5376 24.3328 17.2635 24.4464C16.9894 24.5599 16.6878 24.5896 16.3968 24.5317C16.1058 24.4738 15.8386 24.331 15.6288 24.1212C15.419 23.9114 15.2762 23.6442 15.2183 23.3532C15.1604 23.0622 15.1901 22.7606 15.3036 22.4865C15.4172 22.2124 15.6094 21.9782 15.8561 21.8133C16.1028 21.6485 16.3928 21.5605 16.6895 21.5605C17.0873 21.5605 17.4688 21.7186 17.7501 21.9999C18.0314 22.2812 18.1895 22.6627 18.1895 23.0605ZM21.6895 14.0605C21.6895 16.233 19.9695 18.0518 17.6895 18.4705V18.5605C17.6895 18.8258 17.5841 19.0801 17.3966 19.2677C17.209 19.4552 16.9547 19.5605 16.6895 19.5605C16.4242 19.5605 16.1699 19.4552 15.9823 19.2677C15.7948 19.0801 15.6895 18.8258 15.6895 18.5605V17.5605C15.6895 17.2953 15.7948 17.041 15.9823 16.8534C16.1699 16.6659 16.4242 16.5605 16.6895 16.5605C18.3432 16.5605 19.6895 15.4355 19.6895 14.0605C19.6895 12.6855 18.3432 11.5605 16.6895 11.5605C15.0357 11.5605 13.6895 12.6855 13.6895 14.0605V14.5605C13.6895 14.8258 13.5841 15.0801 13.3966 15.2677C13.209 15.4552 12.9547 15.5605 12.6895 15.5605C12.4242 15.5605 12.1699 15.4552 11.9823 15.2677C11.7948 15.0801 11.6895 14.8258 11.6895 14.5605V14.0605C11.6895 11.5793 13.932 9.56055 16.6895 9.56055C19.447 9.56055 21.6895 11.5793 21.6895 14.0605Z" fill="white"/>
</svg>
